<?xml version="1.0" encoding="utf-8" standalone="no"?>
<!DOCTYPE svg PUBLIC "-//W3C//DTD SVG 1.1//EN"
  "http://www.w3.org/Graphics/SVG/1.1/DTD/svg11.dtd">
<svg xmlns:xlink="http://www.w3.org/1999/xlink" width="349.2pt" height="357.2pt" viewBox="0 0 349.2 357.2" xmlns="http://www.w3.org/2000/svg" version="1.1">
 <metadata>
  <rdf:RDF xmlns:dc="http://purl.org/dc/elements/1.1/" xmlns:cc="http://creativecommons.org/ns#" xmlns:rdf="http://www.w3.org/1999/02/22-rdf-syntax-ns#">
   <cc:Work>
    <dc:type rdf:resource="http://purl.org/dc/dcmitype/StillImage"/>
    <dc:date>2022-05-24T19:50:56.124349</dc:date>
    <dc:format>image/svg+xml</dc:format>
    <dc:creator>
     <cc:Agent>
      <dc:title>Matplotlib v3.5.1, https://matplotlib.org/</dc:title>
     </cc:Agent>
    </dc:creator>
   </cc:Work>
  </rdf:RDF>
 </metadata>
 <defs>
  <style type="text/css">*{stroke-linejoin: round; stroke-linecap: butt}</style>
 </defs>
 <g id="figure_1">
  <g id="patch_1">
   <path d="M 0 357.2 
L 349.2 357.2 
L 349.2 0 
L 0 0 
L 0 357.2 
z
" style="fill: none"/>
  </g>
  <g id="axes_1">
   <g id="patch_2">
    <path d="M 7.2 350 
L 342 350 
L 342 23.84 
L 7.2 23.84 
z
" style="fill: #ffffff"/>
   </g>
   <g id="LineCollection_1">
    <path d="M 247.23798 178.025929 
L 141.277993 198.12462 
" clip-path="url(#p0eeb3029ef)" style="fill: none; stroke: #000000; stroke-width: 0.228744"/>
    <path d="M 247.23798 178.025929 
L 253.698626 85.08647 
" clip-path="url(#p0eeb3029ef)" style="fill: none; stroke: #000000; stroke-width: 0.111562"/>
    <path d="M 247.23798 178.025929 
L 255.934869 114.646097 
" clip-path="url(#p0eeb3029ef)" style="fill: none; stroke: #000000; stroke-width: 0.010373"/>
    <path d="M 247.23798 178.025929 
L 262.13291 240.336389 
" clip-path="url(#p0eeb3029ef)" style="fill: none; stroke: #000000; stroke-width: 0.328919"/>
    <path d="M 247.23798 178.025929 
L 278.060449 196.316874 
" clip-path="url(#p0eeb3029ef)" style="fill: none; stroke: #000000; stroke-width: 0.340301"/>
    <path d="M 247.23798 178.025929 
L 218.190427 223.760737 
" clip-path="url(#p0eeb3029ef)" style="fill: none; stroke: #000000; stroke-width: 0.421722"/>
    <path d="M 247.23798 178.025929 
L 297.653746 134.616906 
" clip-path="url(#p0eeb3029ef)" style="fill: none; stroke: #000000; stroke-width: 0.075128"/>
    <path d="M 247.23798 178.025929 
L 175.025007 190.690658 
" clip-path="url(#p0eeb3029ef)" style="fill: none; stroke: #000000; stroke-width: 0.16463"/>
    <path d="M 247.23798 178.025929 
L 220.046103 252.162276 
" clip-path="url(#p0eeb3029ef)" style="fill: none; stroke: #000000; stroke-width: 0.07199"/>
    <path d="M 247.23798 178.025929 
L 277.518549 92.611238 
" clip-path="url(#p0eeb3029ef)" style="fill: none; stroke: #000000; stroke-width: 0.075286"/>
    <path d="M 247.23798 178.025929 
L 247.924647 225.960806 
" clip-path="url(#p0eeb3029ef)" style="fill: none; stroke: #000000; stroke-width: 0.174729"/>
    <path d="M 247.23798 178.025929 
L 234.977858 134.052999 
" clip-path="url(#p0eeb3029ef)" style="fill: none; stroke: #000000; stroke-width: 0.158651"/>
    <path d="M 214.078867 279.629017 
L 114.607606 216.021107 
" clip-path="url(#p0eeb3029ef)" style="fill: none; stroke: #000000; stroke-width: 0.068185"/>
    <path d="M 214.078867 279.629017 
L 111.884257 246.999873 
" clip-path="url(#p0eeb3029ef)" style="fill: none; stroke: #000000; stroke-width: 0.041089"/>
    <path d="M 214.078867 279.629017 
L 128.587858 292.896414 
" clip-path="url(#p0eeb3029ef)" style="fill: none; stroke: #000000; stroke-width: 0.119932"/>
    <path d="M 214.078867 279.629017 
L 177.834846 227.772664 
" clip-path="url(#p0eeb3029ef)" style="fill: none; stroke: #000000; stroke-width: 0.077897"/>
    <path d="M 214.078867 279.629017 
L 161.296909 249.778567 
" clip-path="url(#p0eeb3029ef)" style="fill: none; stroke: #000000; stroke-width: 0.056604"/>
    <path d="M 214.078867 279.629017 
L 127.752903 265.488777 
" clip-path="url(#p0eeb3029ef)" style="fill: none; stroke: #000000; stroke-width: 0.257631"/>
    <path d="M 214.078867 279.629017 
L 262.13291 240.336389 
" clip-path="url(#p0eeb3029ef)" style="fill: none; stroke: #000000; stroke-width: 0.303212"/>
    <path d="M 214.078867 279.629017 
L 278.060449 196.316874 
" clip-path="url(#p0eeb3029ef)" style="fill: none; stroke: #000000; stroke-width: 0.140321"/>
    <path d="M 214.078867 279.629017 
L 140.15328 228.500258 
" clip-path="url(#p0eeb3029ef)" style="fill: none; stroke: #000000; stroke-width: 0.076184"/>
    <path d="M 214.078867 279.629017 
L 218.190427 223.760737 
" clip-path="url(#p0eeb3029ef)" style="fill: none; stroke: #000000; stroke-width: 0.234889"/>
    <path d="M 214.078867 279.629017 
L 179.477399 311.698256 
" clip-path="url(#p0eeb3029ef)" style="fill: none; stroke: #000000; stroke-width: 0.045088"/>
    <path d="M 214.078867 279.629017 
L 183.049643 271.151463 
" clip-path="url(#p0eeb3029ef)" style="fill: none; stroke: #000000; stroke-width: 0.404294"/>
    <path d="M 214.078867 279.629017 
L 142.163625 276.786231 
" clip-path="url(#p0eeb3029ef)" style="fill: none; stroke: #000000; stroke-width: 0.088884"/>
    <path d="M 214.078867 279.629017 
L 175.025007 190.690658 
" clip-path="url(#p0eeb3029ef)" style="fill: none; stroke: #000000; stroke-width: 0.008021"/>
    <path d="M 214.078867 279.629017 
L 220.046103 252.162276 
" clip-path="url(#p0eeb3029ef)" style="fill: none; stroke: #000000; stroke-width: 0.512247"/>
    <path d="M 214.078867 279.629017 
L 247.924647 225.960806 
" clip-path="url(#p0eeb3029ef)" style="fill: none; stroke: #000000; stroke-width: 0.19073"/>
    <path d="M 61.807865 292.0107 
L 114.607606 216.021107 
" clip-path="url(#p0eeb3029ef)" style="fill: none; stroke: #000000; stroke-width: 0.012346"/>
    <path d="M 61.807865 292.0107 
L 141.277993 198.12462 
" clip-path="url(#p0eeb3029ef)" style="fill: none; stroke: #000000; stroke-width: 0.071271"/>
    <path d="M 61.807865 292.0107 
L 74.757856 251.691001 
" clip-path="url(#p0eeb3029ef)" style="fill: none; stroke: #000000; stroke-width: 0.110946"/>
    <path d="M 61.807865 292.0107 
L 128.587858 292.896414 
" clip-path="url(#p0eeb3029ef)" style="fill: none; stroke: #000000; stroke-width: 0.091842"/>
    <path d="M 61.807865 292.0107 
L 36.712963 266.754356 
" clip-path="url(#p0eeb3029ef)" style="fill: none; stroke: #000000; stroke-width: 0.179583"/>
    <path d="M 61.807865 292.0107 
L 127.752903 265.488777 
" clip-path="url(#p0eeb3029ef)" style="fill: none; stroke: #000000; stroke-width: 0.137559"/>
    <path d="M 61.807865 292.0107 
L 88.843837 229.931256 
" clip-path="url(#p0eeb3029ef)" style="fill: none; stroke: #000000; stroke-width: 0.20408"/>
    <path d="M 61.807865 292.0107 
L 53.679953 250.231854 
" clip-path="url(#p0eeb3029ef)" style="fill: none; stroke: #000000; stroke-width: 0.205962"/>
    <path d="M 61.807865 292.0107 
L 110.579065 297.876386 
" clip-path="url(#p0eeb3029ef)" style="fill: none; stroke: #000000; stroke-width: 0.230787"/>
    <path d="M 61.807865 292.0107 
L 179.477399 311.698256 
" clip-path="url(#p0eeb3029ef)" style="fill: none; stroke: #000000; stroke-width: 0.042305"/>
    <path d="M 61.807865 292.0107 
L 53.765908 224.339116 
" clip-path="url(#p0eeb3029ef)" style="fill: none; stroke: #000000; stroke-width: 0.436596"/>
    <path d="M 61.807865 292.0107 
L 183.049643 271.151463 
" clip-path="url(#p0eeb3029ef)" style="fill: none; stroke: #000000; stroke-width: 0.108155"/>
    <path d="M 61.807865 292.0107 
L 73.217737 136.380684 
" clip-path="url(#p0eeb3029ef)" style="fill: none; stroke: #000000; stroke-width: 0.008018"/>
    <path d="M 61.807865 292.0107 
L 79.568882 216.225228 
" clip-path="url(#p0eeb3029ef)" style="fill: none; stroke: #000000; stroke-width: 0.191742"/>
    <path d="M 61.807865 292.0107 
L 75.794545 268.15674 
" clip-path="url(#p0eeb3029ef)" style="fill: none; stroke: #000000; stroke-width: 0.397057"/>
    <path d="M 61.807865 292.0107 
L 36.252893 321.69686 
" clip-path="url(#p0eeb3029ef)" style="fill: none; stroke: #000000; stroke-width: 0.112684"/>
    <path d="M 61.807865 292.0107 
L 95.673002 266.33434 
" clip-path="url(#p0eeb3029ef)" style="fill: none; stroke: #000000; stroke-width: 0.162909"/>
    <path d="M 168.5957 95.694474 
L 238.760104 52.14314 
" clip-path="url(#p0eeb3029ef)" style="fill: none; stroke: #000000; stroke-width: 0.535225"/>
    <path d="M 168.5957 95.694474 
L 141.277993 198.12462 
" clip-path="url(#p0eeb3029ef)" style="fill: none; stroke: #000000; stroke-width: 0.007251"/>
    <path d="M 168.5957 95.694474 
L 253.698626 85.08647 
" clip-path="url(#p0eeb3029ef)" style="fill: none; stroke: #000000; stroke-width: 0.303722"/>
    <path d="M 168.5957 95.694474 
L 74.757856 251.691001 
" clip-path="url(#p0eeb3029ef)" style="fill: none; stroke: #000000; stroke-width: 0.003874"/>
    <path d="M 168.5957 95.694474 
L 255.934869 114.646097 
" clip-path="url(#p0eeb3029ef)" style="fill: none; stroke: #000000; stroke-width: 0.049959"/>
    <path d="M 168.5957 95.694474 
L 111.884257 246.999873 
" clip-path="url(#p0eeb3029ef)" style="fill: none; stroke: #000000; stroke-width: 0.029014"/>
    <path d="M 168.5957 95.694474 
L 131.867592 122.884481 
" clip-path="url(#p0eeb3029ef)" style="fill: none; stroke: #000000; stroke-width: 0.169537"/>
    <path d="M 168.5957 95.694474 
L 36.712963 266.754356 
" clip-path="url(#p0eeb3029ef)" style="fill: none; stroke: #000000; stroke-width: 0.031485"/>
    <path d="M 168.5957 95.694474 
L 146.724648 132.431234 
" clip-path="url(#p0eeb3029ef)" style="fill: none; stroke: #000000; stroke-width: 0.020578"/>
    <path d="M 168.5957 95.694474 
L 88.843837 229.931256 
" clip-path="url(#p0eeb3029ef)" style="fill: none; stroke: #000000; stroke-width: 0.021673"/>
    <path d="M 168.5957 95.694474 
L 140.15328 228.500258 
" clip-path="url(#p0eeb3029ef)" style="fill: none; stroke: #000000; stroke-width: 0.043804"/>
    <path d="M 168.5957 95.694474 
L 53.679953 250.231854 
" clip-path="url(#p0eeb3029ef)" style="fill: none; stroke: #000000; stroke-width: 0.019714"/>
    <path d="M 168.5957 95.694474 
L 192.940931 71.759149 
" clip-path="url(#p0eeb3029ef)" style="fill: none; stroke: #000000; stroke-width: 0.390963"/>
    <path d="M 168.5957 95.694474 
L 73.217737 136.380684 
" clip-path="url(#p0eeb3029ef)" style="fill: none; stroke: #000000; stroke-width: 0.260561"/>
    <path d="M 168.5957 95.694474 
L 79.568882 216.225228 
" clip-path="url(#p0eeb3029ef)" style="fill: none; stroke: #000000; stroke-width: 0.149635"/>
    <path d="M 168.5957 95.694474 
L 277.518549 92.611238 
" clip-path="url(#p0eeb3029ef)" style="fill: none; stroke: #000000; stroke-width: 0.125662"/>
    <path d="M 114.607606 216.021107 
L 141.277993 198.12462 
" clip-path="url(#p0eeb3029ef)" style="fill: none; stroke: #000000; stroke-width: 0.01829"/>
    <path d="M 114.607606 216.021107 
L 74.757856 251.691001 
" clip-path="url(#p0eeb3029ef)" style="fill: none; stroke: #000000; stroke-width: 0.13743"/>
    <path d="M 114.607606 216.021107 
L 111.884257 246.999873 
" clip-path="url(#p0eeb3029ef)" style="fill: none; stroke: #000000; stroke-width: 0.212729"/>
    <path d="M 114.607606 216.021107 
L 128.587858 292.896414 
" clip-path="url(#p0eeb3029ef)" style="fill: none; stroke: #000000; stroke-width: 0.162421"/>
    <path d="M 114.607606 216.021107 
L 131.867592 122.884481 
" clip-path="url(#p0eeb3029ef)" style="fill: none; stroke: #000000; stroke-width: 0.186033"/>
    <path d="M 114.607606 216.021107 
L 177.834846 227.772664 
" clip-path="url(#p0eeb3029ef)" style="fill: none; stroke: #000000; stroke-width: 0.012323"/>
    <path d="M 114.607606 216.021107 
L 36.712963 266.754356 
" clip-path="url(#p0eeb3029ef)" style="fill: none; stroke: #000000; stroke-width: 0.091462"/>
    <path d="M 114.607606 216.021107 
L 161.296909 249.778567 
" clip-path="url(#p0eeb3029ef)" style="fill: none; stroke: #000000; stroke-width: 0.389521"/>
    <path d="M 114.607606 216.021107 
L 127.752903 265.488777 
" clip-path="url(#p0eeb3029ef)" style="fill: none; stroke: #000000; stroke-width: 0.175975"/>
    <path d="M 114.607606 216.021107 
L 146.724648 132.431234 
" clip-path="url(#p0eeb3029ef)" style="fill: none; stroke: #000000; stroke-width: 0.097199"/>
    <path d="M 114.607606 216.021107 
L 140.15328 228.500258 
" clip-path="url(#p0eeb3029ef)" style="fill: none; stroke: #000000; stroke-width: 0.196756"/>
    <path d="M 114.607606 216.021107 
L 53.679953 250.231854 
" clip-path="url(#p0eeb3029ef)" style="fill: none; stroke: #000000; stroke-width: 0.071494"/>
    <path d="M 114.607606 216.021107 
L 110.579065 297.876386 
" clip-path="url(#p0eeb3029ef)" style="fill: none; stroke: #000000; stroke-width: 0.187253"/>
    <path d="M 114.607606 216.021107 
L 218.190427 223.760737 
" clip-path="url(#p0eeb3029ef)" style="fill: none; stroke: #000000; stroke-width: 0.0433"/>
    <path d="M 114.607606 216.021107 
L 142.163625 276.786231 
" clip-path="url(#p0eeb3029ef)" style="fill: none; stroke: #000000; stroke-width: 0.158706"/>
    <path d="M 114.607606 216.021107 
L 73.217737 136.380684 
" clip-path="url(#p0eeb3029ef)" style="fill: none; stroke: #000000; stroke-width: 0.05885"/>
    <path d="M 114.607606 216.021107 
L 79.568882 216.225228 
" clip-path="url(#p0eeb3029ef)" style="fill: none; stroke: #000000; stroke-width: 0.034488"/>
    <path d="M 114.607606 216.021107 
L 75.794545 268.15674 
" clip-path="url(#p0eeb3029ef)" style="fill: none; stroke: #000000; stroke-width: 0.068295"/>
    <path d="M 114.607606 216.021107 
L 175.025007 190.690658 
" clip-path="url(#p0eeb3029ef)" style="fill: none; stroke: #000000; stroke-width: 0.012896"/>
    <path d="M 114.607606 216.021107 
L 220.046103 252.162276 
" clip-path="url(#p0eeb3029ef)" style="fill: none; stroke: #000000; stroke-width: 0.030876"/>
    <path d="M 114.607606 216.021107 
L 95.673002 266.33434 
" clip-path="url(#p0eeb3029ef)" style="fill: none; stroke: #000000; stroke-width: 0.19345"/>
    <path d="M 238.760104 52.14314 
L 253.698626 85.08647 
" clip-path="url(#p0eeb3029ef)" style="fill: none; stroke: #000000; stroke-width: 0.669947"/>
    <path d="M 238.760104 52.14314 
L 255.934869 114.646097 
" clip-path="url(#p0eeb3029ef)" style="fill: none; stroke: #000000; stroke-width: 0.223094"/>
    <path d="M 238.760104 52.14314 
L 192.940931 71.759149 
" clip-path="url(#p0eeb3029ef)" style="fill: none; stroke: #000000; stroke-width: 0.33748"/>
    <path d="M 238.760104 52.14314 
L 297.653746 134.616906 
" clip-path="url(#p0eeb3029ef)" style="fill: none; stroke: #000000; stroke-width: 0.091338"/>
    <path d="M 238.760104 52.14314 
L 277.518549 92.611238 
" clip-path="url(#p0eeb3029ef)" style="fill: none; stroke: #000000; stroke-width: 0.591771"/>
    <path d="M 238.760104 52.14314 
L 234.977858 134.052999 
" clip-path="url(#p0eeb3029ef)" style="fill: none; stroke: #000000; stroke-width: 0.044196"/>
    <path d="M 141.277993 198.12462 
L 74.757856 251.691001 
" clip-path="url(#p0eeb3029ef)" style="fill: none; stroke: #000000; stroke-width: 0.08568"/>
    <path d="M 141.277993 198.12462 
L 111.884257 246.999873 
" clip-path="url(#p0eeb3029ef)" style="fill: none; stroke: #000000; stroke-width: 0.172419"/>
    <path d="M 141.277993 198.12462 
L 128.587858 292.896414 
" clip-path="url(#p0eeb3029ef)" style="fill: none; stroke: #000000; stroke-width: 0.075995"/>
    <path d="M 141.277993 198.12462 
L 131.867592 122.884481 
" clip-path="url(#p0eeb3029ef)" style="fill: none; stroke: #000000; stroke-width: 0.105605"/>
    <path d="M 141.277993 198.12462 
L 36.712963 266.754356 
" clip-path="url(#p0eeb3029ef)" style="fill: none; stroke: #000000; stroke-width: 0.007121"/>
    <path d="M 141.277993 198.12462 
L 127.752903 265.488777 
" clip-path="url(#p0eeb3029ef)" style="fill: none; stroke: #000000; stroke-width: 0.122415"/>
    <path d="M 141.277993 198.12462 
L 146.724648 132.431234 
" clip-path="url(#p0eeb3029ef)" style="fill: none; stroke: #000000; stroke-width: 0.101582"/>
    <path d="M 141.277993 198.12462 
L 88.843837 229.931256 
" clip-path="url(#p0eeb3029ef)" style="fill: none; stroke: #000000; stroke-width: 0.103327"/>
    <path d="M 141.277993 198.12462 
L 140.15328 228.500258 
" clip-path="url(#p0eeb3029ef)" style="fill: none; stroke: #000000; stroke-width: 0.096183"/>
    <path d="M 141.277993 198.12462 
L 53.679953 250.231854 
" clip-path="url(#p0eeb3029ef)" style="fill: none; stroke: #000000; stroke-width: 0.194378"/>
    <path d="M 141.277993 198.12462 
L 218.190427 223.760737 
" clip-path="url(#p0eeb3029ef)" style="fill: none; stroke: #000000; stroke-width: 0.256423"/>
    <path d="M 141.277993 198.12462 
L 192.940931 71.759149 
" clip-path="url(#p0eeb3029ef)" style="fill: none; stroke: #000000; stroke-width: 0.093575"/>
    <path d="M 141.277993 198.12462 
L 53.765908 224.339116 
" clip-path="url(#p0eeb3029ef)" style="fill: none; stroke: #000000; stroke-width: 0.102753"/>
    <path d="M 141.277993 198.12462 
L 79.568882 216.225228 
" clip-path="url(#p0eeb3029ef)" style="fill: none; stroke: #000000; stroke-width: 0.134508"/>
    <path d="M 141.277993 198.12462 
L 75.794545 268.15674 
" clip-path="url(#p0eeb3029ef)" style="fill: none; stroke: #000000; stroke-width: 0.318235"/>
    <path d="M 141.277993 198.12462 
L 175.025007 190.690658 
" clip-path="url(#p0eeb3029ef)" style="fill: none; stroke: #000000; stroke-width: 0.187658"/>
    <path d="M 141.277993 198.12462 
L 220.046103 252.162276 
" clip-path="url(#p0eeb3029ef)" style="fill: none; stroke: #000000; stroke-width: 0.028029"/>
    <path d="M 141.277993 198.12462 
L 95.673002 266.33434 
" clip-path="url(#p0eeb3029ef)" style="fill: none; stroke: #000000; stroke-width: 0.11007"/>
    <path d="M 141.277993 198.12462 
L 247.924647 225.960806 
" clip-path="url(#p0eeb3029ef)" style="fill: none; stroke: #000000; stroke-width: 0.126891"/>
    <path d="M 141.277993 198.12462 
L 234.977858 134.052999 
" clip-path="url(#p0eeb3029ef)" style="fill: none; stroke: #000000; stroke-width: 0.127559"/>
    <path d="M 253.698626 85.08647 
L 255.934869 114.646097 
" clip-path="url(#p0eeb3029ef)" style="fill: none; stroke: #000000; stroke-width: 0.222281"/>
    <path d="M 253.698626 85.08647 
L 262.13291 240.336389 
" clip-path="url(#p0eeb3029ef)" style="fill: none; stroke: #000000; stroke-width: 0.026628"/>
    <path d="M 253.698626 85.08647 
L 278.060449 196.316874 
" clip-path="url(#p0eeb3029ef)" style="fill: none; stroke: #000000; stroke-width: 0.133377"/>
    <path d="M 253.698626 85.08647 
L 140.15328 228.500258 
" clip-path="url(#p0eeb3029ef)" style="fill: none; stroke: #000000; stroke-width: 0.015135"/>
    <path d="M 253.698626 85.08647 
L 192.940931 71.759149 
" clip-path="url(#p0eeb3029ef)" style="fill: none; stroke: #000000; stroke-width: 0.228867"/>
    <path d="M 253.698626 85.08647 
L 297.653746 134.616906 
" clip-path="url(#p0eeb3029ef)" style="fill: none; stroke: #000000; stroke-width: 0.354129"/>
    <path d="M 253.698626 85.08647 
L 312.947107 198.5337 
" clip-path="url(#p0eeb3029ef)" style="fill: none; stroke: #000000; stroke-width: 0.024483"/>
    <path d="M 253.698626 85.08647 
L 175.025007 190.690658 
" clip-path="url(#p0eeb3029ef)" style="fill: none; stroke: #000000; stroke-width: 0.007136"/>
    <path d="M 253.698626 85.08647 
L 277.518549 92.611238 
" clip-path="url(#p0eeb3029ef)" style="fill: none; stroke: #000000; stroke-width: 0.705732"/>
    <path d="M 253.698626 85.08647 
L 234.977858 134.052999 
" clip-path="url(#p0eeb3029ef)" style="fill: none; stroke: #000000; stroke-width: 0.234"/>
    <path d="M 74.757856 251.691001 
L 111.884257 246.999873 
" clip-path="url(#p0eeb3029ef)" style="fill: none; stroke: #000000; stroke-width: 0.188239"/>
    <path d="M 74.757856 251.691001 
L 128.587858 292.896414 
" clip-path="url(#p0eeb3029ef)" style="fill: none; stroke: #000000; stroke-width: 0.205819"/>
    <path d="M 74.757856 251.691001 
L 131.867592 122.884481 
" clip-path="url(#p0eeb3029ef)" style="fill: none; stroke: #000000; stroke-width: 0.099621"/>
    <path d="M 74.757856 251.691001 
L 36.712963 266.754356 
" clip-path="url(#p0eeb3029ef)" style="fill: none; stroke: #000000; stroke-width: 0.289684"/>
    <path d="M 74.757856 251.691001 
L 161.296909 249.778567 
" clip-path="url(#p0eeb3029ef)" style="fill: none; stroke: #000000; stroke-width: 0.100419"/>
    <path d="M 74.757856 251.691001 
L 127.752903 265.488777 
" clip-path="url(#p0eeb3029ef)" style="fill: none; stroke: #000000; stroke-width: 0.224508"/>
    <path d="M 74.757856 251.691001 
L 88.843837 229.931256 
" clip-path="url(#p0eeb3029ef)" style="fill: none; stroke: #000000; stroke-width: 0.032896"/>
    <path d="M 74.757856 251.691001 
L 140.15328 228.500258 
" clip-path="url(#p0eeb3029ef)" style="fill: none; stroke: #000000; stroke-width: 0.116284"/>
    <path d="M 74.757856 251.691001 
L 53.679953 250.231854 
" clip-path="url(#p0eeb3029ef)" style="fill: none; stroke: #000000; stroke-width: 0.42243"/>
    <path d="M 74.757856 251.691001 
L 110.579065 297.876386 
" clip-path="url(#p0eeb3029ef)" style="fill: none; stroke: #000000; stroke-width: 0.211021"/>
    <path d="M 74.757856 251.691001 
L 53.765908 224.339116 
" clip-path="url(#p0eeb3029ef)" style="fill: none; stroke: #000000; stroke-width: 0.035987"/>
    <path d="M 74.757856 251.691001 
L 142.163625 276.786231 
" clip-path="url(#p0eeb3029ef)" style="fill: none; stroke: #000000; stroke-width: 0.228338"/>
    <path d="M 74.757856 251.691001 
L 73.217737 136.380684 
" clip-path="url(#p0eeb3029ef)" style="fill: none; stroke: #000000; stroke-width: 0.043702"/>
    <path d="M 74.757856 251.691001 
L 79.568882 216.225228 
" clip-path="url(#p0eeb3029ef)" style="fill: none; stroke: #000000; stroke-width: 0.211382"/>
    <path d="M 74.757856 251.691001 
L 75.794545 268.15674 
" clip-path="url(#p0eeb3029ef)" style="fill: none; stroke: #000000; stroke-width: 0.073083"/>
    <path d="M 74.757856 251.691001 
L 36.252893 321.69686 
" clip-path="url(#p0eeb3029ef)" style="fill: none; stroke: #000000; stroke-width: 0.210417"/>
    <path d="M 74.757856 251.691001 
L 95.673002 266.33434 
" clip-path="url(#p0eeb3029ef)" style="fill: none; stroke: #000000; stroke-width: 0.425222"/>
    <path d="M 255.934869 114.646097 
L 278.060449 196.316874 
" clip-path="url(#p0eeb3029ef)" style="fill: none; stroke: #000000; stroke-width: 0.03048"/>
    <path d="M 255.934869 114.646097 
L 192.940931 71.759149 
" clip-path="url(#p0eeb3029ef)" style="fill: none; stroke: #000000; stroke-width: 0.076865"/>
    <path d="M 255.934869 114.646097 
L 53.765908 224.339116 
" clip-path="url(#p0eeb3029ef)" style="fill: none; stroke: #000000; stroke-width: 0.057477"/>
    <path d="M 255.934869 114.646097 
L 297.653746 134.616906 
" clip-path="url(#p0eeb3029ef)" style="fill: none; stroke: #000000; stroke-width: 0.211451"/>
    <path d="M 255.934869 114.646097 
L 312.947107 198.5337 
" clip-path="url(#p0eeb3029ef)" style="fill: none; stroke: #000000; stroke-width: 0.158399"/>
    <path d="M 255.934869 114.646097 
L 175.025007 190.690658 
" clip-path="url(#p0eeb3029ef)" style="fill: none; stroke: #000000; stroke-width: 0.100468"/>
    <path d="M 255.934869 114.646097 
L 277.518549 92.611238 
" clip-path="url(#p0eeb3029ef)" style="fill: none; stroke: #000000; stroke-width: 0.515028"/>
    <path d="M 255.934869 114.646097 
L 247.924647 225.960806 
" clip-path="url(#p0eeb3029ef)" style="fill: none; stroke: #000000; stroke-width: 0.050907"/>
    <path d="M 255.934869 114.646097 
L 234.977858 134.052999 
" clip-path="url(#p0eeb3029ef)" style="fill: none; stroke: #000000; stroke-width: 0.134225"/>
    <path d="M 111.884257 246.999873 
L 128.587858 292.896414 
" clip-path="url(#p0eeb3029ef)" style="fill: none; stroke: #000000; stroke-width: 0.112793"/>
    <path d="M 111.884257 246.999873 
L 131.867592 122.884481 
" clip-path="url(#p0eeb3029ef)" style="fill: none; stroke: #000000; stroke-width: 0.00379"/>
    <path d="M 111.884257 246.999873 
L 177.834846 227.772664 
" clip-path="url(#p0eeb3029ef)" style="fill: none; stroke: #000000; stroke-width: 0.016297"/>
    <path d="M 111.884257 246.999873 
L 36.712963 266.754356 
" clip-path="url(#p0eeb3029ef)" style="fill: none; stroke: #000000; stroke-width: 0.246856"/>
    <path d="M 111.884257 246.999873 
L 161.296909 249.778567 
" clip-path="url(#p0eeb3029ef)" style="fill: none; stroke: #000000; stroke-width: 0.095628"/>
    <path d="M 111.884257 246.999873 
L 127.752903 265.488777 
" clip-path="url(#p0eeb3029ef)" style="fill: none; stroke: #000000; stroke-width: 0.474738"/>
    <path d="M 111.884257 246.999873 
L 146.724648 132.431234 
" clip-path="url(#p0eeb3029ef)" style="fill: none; stroke: #000000; stroke-width: 0.111548"/>
    <path d="M 111.884257 246.999873 
L 88.843837 229.931256 
" clip-path="url(#p0eeb3029ef)" style="fill: none; stroke: #000000; stroke-width: 0.143762"/>
    <path d="M 111.884257 246.999873 
L 140.15328 228.500258 
" clip-path="url(#p0eeb3029ef)" style="fill: none; stroke: #000000; stroke-width: 0.40519"/>
    <path d="M 111.884257 246.999873 
L 53.679953 250.231854 
" clip-path="url(#p0eeb3029ef)" style="fill: none; stroke: #000000; stroke-width: 0.348166"/>
    <path d="M 111.884257 246.999873 
L 110.579065 297.876386 
" clip-path="url(#p0eeb3029ef)" style="fill: none; stroke: #000000; stroke-width: 0.230555"/>
    <path d="M 111.884257 246.999873 
L 218.190427 223.760737 
" clip-path="url(#p0eeb3029ef)" style="fill: none; stroke: #000000; stroke-width: 0.001241"/>
    <path d="M 111.884257 246.999873 
L 179.477399 311.698256 
" clip-path="url(#p0eeb3029ef)" style="fill: none; stroke: #000000; stroke-width: 0.159511"/>
    <path d="M 111.884257 246.999873 
L 183.049643 271.151463 
" clip-path="url(#p0eeb3029ef)" style="fill: none; stroke: #000000; stroke-width: 0.135517"/>
    <path d="M 111.884257 246.999873 
L 142.163625 276.786231 
" clip-path="url(#p0eeb3029ef)" style="fill: none; stroke: #000000; stroke-width: 0.449717"/>
    <path d="M 111.884257 246.999873 
L 79.568882 216.225228 
" clip-path="url(#p0eeb3029ef)" style="fill: none; stroke: #000000; stroke-width: 0.304706"/>
    <path d="M 111.884257 246.999873 
L 75.794545 268.15674 
" clip-path="url(#p0eeb3029ef)" style="fill: none; stroke: #000000; stroke-width: 0.043344"/>
    <path d="M 111.884257 246.999873 
L 175.025007 190.690658 
" clip-path="url(#p0eeb3029ef)" style="fill: none; stroke: #000000; stroke-width: 0.063655"/>
    <path d="M 111.884257 246.999873 
L 95.673002 266.33434 
" clip-path="url(#p0eeb3029ef)" style="fill: none; stroke: #000000; stroke-width: 0.256456"/>
    <path d="M 128.587858 292.896414 
L 177.834846 227.772664 
" clip-path="url(#p0eeb3029ef)" style="fill: none; stroke: #000000; stroke-width: 0.028933"/>
    <path d="M 128.587858 292.896414 
L 36.712963 266.754356 
" clip-path="url(#p0eeb3029ef)" style="fill: none; stroke: #000000; stroke-width: 0.023604"/>
    <path d="M 128.587858 292.896414 
L 161.296909 249.778567 
" clip-path="url(#p0eeb3029ef)" style="fill: none; stroke: #000000; stroke-width: 0.273685"/>
    <path d="M 128.587858 292.896414 
L 127.752903 265.488777 
" clip-path="url(#p0eeb3029ef)" style="fill: none; stroke: #000000; stroke-width: 0.201179"/>
    <path d="M 128.587858 292.896414 
L 88.843837 229.931256 
" clip-path="url(#p0eeb3029ef)" style="fill: none; stroke: #000000; stroke-width: 0.066293"/>
    <path d="M 128.587858 292.896414 
L 140.15328 228.500258 
" clip-path="url(#p0eeb3029ef)" style="fill: none; stroke: #000000; stroke-width: 0.172436"/>
    <path d="M 128.587858 292.896414 
L 53.679953 250.231854 
" clip-path="url(#p0eeb3029ef)" style="fill: none; stroke: #000000; stroke-width: 0.061418"/>
    <path d="M 128.587858 292.896414 
L 110.579065 297.876386 
" clip-path="url(#p0eeb3029ef)" style="fill: none; stroke: #000000; stroke-width: 0.052126"/>
    <path d="M 128.587858 292.896414 
L 218.190427 223.760737 
" clip-path="url(#p0eeb3029ef)" style="fill: none; stroke: #000000; stroke-width: 0.091657"/>
    <path d="M 128.587858 292.896414 
L 53.765908 224.339116 
" clip-path="url(#p0eeb3029ef)" style="fill: none; stroke: #000000; stroke-width: 0.029294"/>
    <path d="M 128.587858 292.896414 
L 183.049643 271.151463 
" clip-path="url(#p0eeb3029ef)" style="fill: none; stroke: #000000; stroke-width: 0.20072"/>
    <path d="M 128.587858 292.896414 
L 142.163625 276.786231 
" clip-path="url(#p0eeb3029ef)" style="fill: none; stroke: #000000; stroke-width: 0.125756"/>
    <path d="M 128.587858 292.896414 
L 79.568882 216.225228 
" clip-path="url(#p0eeb3029ef)" style="fill: none; stroke: #000000; stroke-width: 0.085325"/>
    <path d="M 128.587858 292.896414 
L 75.794545 268.15674 
" clip-path="url(#p0eeb3029ef)" style="fill: none; stroke: #000000; stroke-width: 0.033161"/>
    <path d="M 128.587858 292.896414 
L 175.025007 190.690658 
" clip-path="url(#p0eeb3029ef)" style="fill: none; stroke: #000000; stroke-width: 0.045649"/>
    <path d="M 128.587858 292.896414 
L 220.046103 252.162276 
" clip-path="url(#p0eeb3029ef)" style="fill: none; stroke: #000000; stroke-width: 0.24634"/>
    <path d="M 128.587858 292.896414 
L 36.252893 321.69686 
" clip-path="url(#p0eeb3029ef)" style="fill: none; stroke: #000000; stroke-width: 0.267724"/>
    <path d="M 128.587858 292.896414 
L 95.673002 266.33434 
" clip-path="url(#p0eeb3029ef)" style="fill: none; stroke: #000000; stroke-width: 0.386414"/>
    <path d="M 131.867592 122.884481 
L 161.296909 249.778567 
" clip-path="url(#p0eeb3029ef)" style="fill: none; stroke: #000000; stroke-width: 0.089861"/>
    <path d="M 131.867592 122.884481 
L 146.724648 132.431234 
" clip-path="url(#p0eeb3029ef)" style="fill: none; stroke: #000000; stroke-width: 0.349593"/>
    <path d="M 131.867592 122.884481 
L 140.15328 228.500258 
" clip-path="url(#p0eeb3029ef)" style="fill: none; stroke: #000000; stroke-width: 0.052766"/>
    <path d="M 131.867592 122.884481 
L 192.940931 71.759149 
" clip-path="url(#p0eeb3029ef)" style="fill: none; stroke: #000000; stroke-width: 0.310217"/>
    <path d="M 131.867592 122.884481 
L 73.217737 136.380684 
" clip-path="url(#p0eeb3029ef)" style="fill: none; stroke: #000000; stroke-width: 0.091766"/>
    <path d="M 131.867592 122.884481 
L 297.653746 134.616906 
" clip-path="url(#p0eeb3029ef)" style="fill: none; stroke: #000000; stroke-width: 0.007408"/>
    <path d="M 131.867592 122.884481 
L 79.568882 216.225228 
" clip-path="url(#p0eeb3029ef)" style="fill: none; stroke: #000000; stroke-width: 0.059696"/>
    <path d="M 131.867592 122.884481 
L 36.252893 321.69686 
" clip-path="url(#p0eeb3029ef)" style="fill: none; stroke: #000000; stroke-width: 0.00576"/>
    <path d="M 131.867592 122.884481 
L 277.518549 92.611238 
" clip-path="url(#p0eeb3029ef)" style="fill: none; stroke: #000000; stroke-width: 0.00973"/>
    <path d="M 131.867592 122.884481 
L 234.977858 134.052999 
" clip-path="url(#p0eeb3029ef)" style="fill: none; stroke: #000000; stroke-width: 0.205447"/>
    <path d="M 177.834846 227.772664 
L 161.296909 249.778567 
" clip-path="url(#p0eeb3029ef)" style="fill: none; stroke: #000000; stroke-width: 0.131173"/>
    <path d="M 177.834846 227.772664 
L 127.752903 265.488777 
" clip-path="url(#p0eeb3029ef)" style="fill: none; stroke: #000000; stroke-width: 0.095297"/>
    <path d="M 177.834846 227.772664 
L 140.15328 228.500258 
" clip-path="url(#p0eeb3029ef)" style="fill: none; stroke: #000000; stroke-width: 0.223894"/>
    <path d="M 177.834846 227.772664 
L 183.049643 271.151463 
" clip-path="url(#p0eeb3029ef)" style="fill: none; stroke: #000000; stroke-width: 0.043782"/>
    <path d="M 177.834846 227.772664 
L 142.163625 276.786231 
" clip-path="url(#p0eeb3029ef)" style="fill: none; stroke: #000000; stroke-width: 0.388014"/>
    <path d="M 177.834846 227.772664 
L 220.046103 252.162276 
" clip-path="url(#p0eeb3029ef)" style="fill: none; stroke: #000000; stroke-width: 0.074718"/>
    <path d="M 177.834846 227.772664 
L 95.673002 266.33434 
" clip-path="url(#p0eeb3029ef)" style="fill: none; stroke: #000000; stroke-width: 0.018043"/>
    <path d="M 36.712963 266.754356 
L 127.752903 265.488777 
" clip-path="url(#p0eeb3029ef)" style="fill: none; stroke: #000000; stroke-width: 0.028145"/>
    <path d="M 36.712963 266.754356 
L 146.724648 132.431234 
" clip-path="url(#p0eeb3029ef)" style="fill: none; stroke: #000000; stroke-width: 0.006765"/>
    <path d="M 36.712963 266.754356 
L 53.679953 250.231854 
" clip-path="url(#p0eeb3029ef)" style="fill: none; stroke: #000000; stroke-width: 0.623384"/>
    <path d="M 36.712963 266.754356 
L 110.579065 297.876386 
" clip-path="url(#p0eeb3029ef)" style="fill: none; stroke: #000000; stroke-width: 0.22014"/>
    <path d="M 36.712963 266.754356 
L 53.765908 224.339116 
" clip-path="url(#p0eeb3029ef)" style="fill: none; stroke: #000000; stroke-width: 0.162036"/>
    <path d="M 36.712963 266.754356 
L 142.163625 276.786231 
" clip-path="url(#p0eeb3029ef)" style="fill: none; stroke: #000000; stroke-width: 0.063712"/>
    <path d="M 36.712963 266.754356 
L 73.217737 136.380684 
" clip-path="url(#p0eeb3029ef)" style="fill: none; stroke: #000000; stroke-width: 0.012056"/>
    <path d="M 36.712963 266.754356 
L 79.568882 216.225228 
" clip-path="url(#p0eeb3029ef)" style="fill: none; stroke: #000000; stroke-width: 0.251877"/>
    <path d="M 36.712963 266.754356 
L 75.794545 268.15674 
" clip-path="url(#p0eeb3029ef)" style="fill: none; stroke: #000000; stroke-width: 0.236197"/>
    <path d="M 36.712963 266.754356 
L 36.252893 321.69686 
" clip-path="url(#p0eeb3029ef)" style="fill: none; stroke: #000000; stroke-width: 0.21342"/>
    <path d="M 36.712963 266.754356 
L 95.673002 266.33434 
" clip-path="url(#p0eeb3029ef)" style="fill: none; stroke: #000000; stroke-width: 0.14235"/>
    <path d="M 161.296909 249.778567 
L 127.752903 265.488777 
" clip-path="url(#p0eeb3029ef)" style="fill: none; stroke: #000000; stroke-width: 0.05729"/>
    <path d="M 161.296909 249.778567 
L 140.15328 228.500258 
" clip-path="url(#p0eeb3029ef)" style="fill: none; stroke: #000000; stroke-width: 0.378764"/>
    <path d="M 161.296909 249.778567 
L 183.049643 271.151463 
" clip-path="url(#p0eeb3029ef)" style="fill: none; stroke: #000000; stroke-width: 0.159962"/>
    <path d="M 161.296909 249.778567 
L 142.163625 276.786231 
" clip-path="url(#p0eeb3029ef)" style="fill: none; stroke: #000000; stroke-width: 0.049206"/>
    <path d="M 161.296909 249.778567 
L 250.15734 298.069634 
" clip-path="url(#p0eeb3029ef)" style="fill: none; stroke: #000000; stroke-width: 0.03039"/>
    <path d="M 161.296909 249.778567 
L 312.947107 198.5337 
" clip-path="url(#p0eeb3029ef)" style="fill: none; stroke: #000000; stroke-width: 0.022036"/>
    <path d="M 161.296909 249.778567 
L 175.025007 190.690658 
" clip-path="url(#p0eeb3029ef)" style="fill: none; stroke: #000000; stroke-width: 0.105709"/>
    <path d="M 161.296909 249.778567 
L 220.046103 252.162276 
" clip-path="url(#p0eeb3029ef)" style="fill: none; stroke: #000000; stroke-width: 0.278072"/>
    <path d="M 161.296909 249.778567 
L 36.252893 321.69686 
" clip-path="url(#p0eeb3029ef)" style="fill: none; stroke: #000000; stroke-width: 0.002314"/>
    <path d="M 161.296909 249.778567 
L 95.673002 266.33434 
" clip-path="url(#p0eeb3029ef)" style="fill: none; stroke: #000000; stroke-width: 0.138685"/>
    <path d="M 127.752903 265.488777 
L 146.724648 132.431234 
" clip-path="url(#p0eeb3029ef)" style="fill: none; stroke: #000000; stroke-width: 0.048913"/>
    <path d="M 127.752903 265.488777 
L 88.843837 229.931256 
" clip-path="url(#p0eeb3029ef)" style="fill: none; stroke: #000000; stroke-width: 0.129918"/>
    <path d="M 127.752903 265.488777 
L 140.15328 228.500258 
" clip-path="url(#p0eeb3029ef)" style="fill: none; stroke: #000000; stroke-width: 0.232793"/>
    <path d="M 127.752903 265.488777 
L 53.679953 250.231854 
" clip-path="url(#p0eeb3029ef)" style="fill: none; stroke: #000000; stroke-width: 0.219571"/>
    <path d="M 127.752903 265.488777 
L 110.579065 297.876386 
" clip-path="url(#p0eeb3029ef)" style="fill: none; stroke: #000000; stroke-width: 0.256421"/>
    <path d="M 127.752903 265.488777 
L 218.190427 223.760737 
" clip-path="url(#p0eeb3029ef)" style="fill: none; stroke: #000000; stroke-width: 0.034016"/>
    <path d="M 127.752903 265.488777 
L 179.477399 311.698256 
" clip-path="url(#p0eeb3029ef)" style="fill: none; stroke: #000000; stroke-width: 0.11913"/>
    <path d="M 127.752903 265.488777 
L 53.765908 224.339116 
" clip-path="url(#p0eeb3029ef)" style="fill: none; stroke: #000000; stroke-width: 0.033545"/>
    <path d="M 127.752903 265.488777 
L 183.049643 271.151463 
" clip-path="url(#p0eeb3029ef)" style="fill: none; stroke: #000000; stroke-width: 0.353801"/>
    <path d="M 127.752903 265.488777 
L 142.163625 276.786231 
" clip-path="url(#p0eeb3029ef)" style="fill: none; stroke: #000000; stroke-width: 0.414258"/>
    <path d="M 127.752903 265.488777 
L 79.568882 216.225228 
" clip-path="url(#p0eeb3029ef)" style="fill: none; stroke: #000000; stroke-width: 0.150706"/>
    <path d="M 127.752903 265.488777 
L 75.794545 268.15674 
" clip-path="url(#p0eeb3029ef)" style="fill: none; stroke: #000000; stroke-width: 0.174379"/>
    <path d="M 127.752903 265.488777 
L 175.025007 190.690658 
" clip-path="url(#p0eeb3029ef)" style="fill: none; stroke: #000000; stroke-width: 0.033656"/>
    <path d="M 127.752903 265.488777 
L 220.046103 252.162276 
" clip-path="url(#p0eeb3029ef)" style="fill: none; stroke: #000000; stroke-width: 0.106359"/>
    <path d="M 127.752903 265.488777 
L 95.673002 266.33434 
" clip-path="url(#p0eeb3029ef)" style="fill: none; stroke: #000000; stroke-width: 0.279564"/>
    <path d="M 262.13291 240.336389 
L 278.060449 196.316874 
" clip-path="url(#p0eeb3029ef)" style="fill: none; stroke: #000000; stroke-width: 0.506104"/>
    <path d="M 262.13291 240.336389 
L 218.190427 223.760737 
" clip-path="url(#p0eeb3029ef)" style="fill: none; stroke: #000000; stroke-width: 0.118078"/>
    <path d="M 262.13291 240.336389 
L 179.477399 311.698256 
" clip-path="url(#p0eeb3029ef)" style="fill: none; stroke: #000000; stroke-width: 0.27952"/>
    <path d="M 262.13291 240.336389 
L 183.049643 271.151463 
" clip-path="url(#p0eeb3029ef)" style="fill: none; stroke: #000000; stroke-width: 0.257155"/>
    <path d="M 262.13291 240.336389 
L 250.15734 298.069634 
" clip-path="url(#p0eeb3029ef)" style="fill: none; stroke: #000000; stroke-width: 0.111493"/>
    <path d="M 262.13291 240.336389 
L 297.653746 134.616906 
" clip-path="url(#p0eeb3029ef)" style="fill: none; stroke: #000000; stroke-width: 0.19478"/>
    <path d="M 262.13291 240.336389 
L 312.947107 198.5337 
" clip-path="url(#p0eeb3029ef)" style="fill: none; stroke: #000000; stroke-width: 0.183165"/>
    <path d="M 262.13291 240.336389 
L 175.025007 190.690658 
" clip-path="url(#p0eeb3029ef)" style="fill: none; stroke: #000000; stroke-width: 0.111116"/>
    <path d="M 262.13291 240.336389 
L 220.046103 252.162276 
" clip-path="url(#p0eeb3029ef)" style="fill: none; stroke: #000000; stroke-width: 0.5294"/>
    <path d="M 262.13291 240.336389 
L 277.518549 92.611238 
" clip-path="url(#p0eeb3029ef)" style="fill: none; stroke: #000000; stroke-width: 0.028783"/>
    <path d="M 262.13291 240.336389 
L 247.924647 225.960806 
" clip-path="url(#p0eeb3029ef)" style="fill: none; stroke: #000000; stroke-width: 0.522493"/>
    <path d="M 262.13291 240.336389 
L 234.977858 134.052999 
" clip-path="url(#p0eeb3029ef)" style="fill: none; stroke: #000000; stroke-width: 0.017842"/>
    <path d="M 146.724648 132.431234 
L 192.940931 71.759149 
" clip-path="url(#p0eeb3029ef)" style="fill: none; stroke: #000000; stroke-width: 0.351722"/>
    <path d="M 146.724648 132.431234 
L 53.765908 224.339116 
" clip-path="url(#p0eeb3029ef)" style="fill: none; stroke: #000000; stroke-width: 0.009894"/>
    <path d="M 146.724648 132.431234 
L 183.049643 271.151463 
" clip-path="url(#p0eeb3029ef)" style="fill: none; stroke: #000000; stroke-width: 0.08403"/>
    <path d="M 146.724648 132.431234 
L 73.217737 136.380684 
" clip-path="url(#p0eeb3029ef)" style="fill: none; stroke: #000000; stroke-width: 0.011784"/>
    <path d="M 146.724648 132.431234 
L 75.794545 268.15674 
" clip-path="url(#p0eeb3029ef)" style="fill: none; stroke: #000000; stroke-width: 0.013382"/>
    <path d="M 146.724648 132.431234 
L 234.977858 134.052999 
" clip-path="url(#p0eeb3029ef)" style="fill: none; stroke: #000000; stroke-width: 0.015243"/>
    <path d="M 88.843837 229.931256 
L 140.15328 228.500258 
" clip-path="url(#p0eeb3029ef)" style="fill: none; stroke: #000000; stroke-width: 0.185251"/>
    <path d="M 88.843837 229.931256 
L 53.679953 250.231854 
" clip-path="url(#p0eeb3029ef)" style="fill: none; stroke: #000000; stroke-width: 0.110417"/>
    <path d="M 88.843837 229.931256 
L 110.579065 297.876386 
" clip-path="url(#p0eeb3029ef)" style="fill: none; stroke: #000000; stroke-width: 0.280646"/>
    <path d="M 88.843837 229.931256 
L 179.477399 311.698256 
" clip-path="url(#p0eeb3029ef)" style="fill: none; stroke: #000000; stroke-width: 0.116906"/>
    <path d="M 88.843837 229.931256 
L 53.765908 224.339116 
" clip-path="url(#p0eeb3029ef)" style="fill: none; stroke: #000000; stroke-width: 0.154384"/>
    <path d="M 88.843837 229.931256 
L 183.049643 271.151463 
" clip-path="url(#p0eeb3029ef)" style="fill: none; stroke: #000000; stroke-width: 0.004479"/>
    <path d="M 88.843837 229.931256 
L 142.163625 276.786231 
" clip-path="url(#p0eeb3029ef)" style="fill: none; stroke: #000000; stroke-width: 0.085397"/>
    <path d="M 88.843837 229.931256 
L 73.217737 136.380684 
" clip-path="url(#p0eeb3029ef)" style="fill: none; stroke: #000000; stroke-width: 0.210247"/>
    <path d="M 88.843837 229.931256 
L 79.568882 216.225228 
" clip-path="url(#p0eeb3029ef)" style="fill: none; stroke: #000000; stroke-width: 0.445096"/>
    <path d="M 88.843837 229.931256 
L 75.794545 268.15674 
" clip-path="url(#p0eeb3029ef)" style="fill: none; stroke: #000000; stroke-width: 0.060463"/>
    <path d="M 88.843837 229.931256 
L 175.025007 190.690658 
" clip-path="url(#p0eeb3029ef)" style="fill: none; stroke: #000000; stroke-width: 0.076569"/>
    <path d="M 88.843837 229.931256 
L 95.673002 266.33434 
" clip-path="url(#p0eeb3029ef)" style="fill: none; stroke: #000000; stroke-width: 0.282115"/>
    <path d="M 278.060449 196.316874 
L 218.190427 223.760737 
" clip-path="url(#p0eeb3029ef)" style="fill: none; stroke: #000000; stroke-width: 0.155555"/>
    <path d="M 278.060449 196.316874 
L 183.049643 271.151463 
" clip-path="url(#p0eeb3029ef)" style="fill: none; stroke: #000000; stroke-width: 0.062861"/>
    <path d="M 278.060449 196.316874 
L 250.15734 298.069634 
" clip-path="url(#p0eeb3029ef)" style="fill: none; stroke: #000000; stroke-width: 0.05846"/>
    <path d="M 278.060449 196.316874 
L 297.653746 134.616906 
" clip-path="url(#p0eeb3029ef)" style="fill: none; stroke: #000000; stroke-width: 0.162463"/>
    <path d="M 278.060449 196.316874 
L 312.947107 198.5337 
" clip-path="url(#p0eeb3029ef)" style="fill: none; stroke: #000000; stroke-width: 0.223901"/>
    <path d="M 278.060449 196.316874 
L 220.046103 252.162276 
" clip-path="url(#p0eeb3029ef)" style="fill: none; stroke: #000000; stroke-width: 0.332097"/>
    <path d="M 278.060449 196.316874 
L 277.518549 92.611238 
" clip-path="url(#p0eeb3029ef)" style="fill: none; stroke: #000000; stroke-width: 0.184389"/>
    <path d="M 278.060449 196.316874 
L 247.924647 225.960806 
" clip-path="url(#p0eeb3029ef)" style="fill: none; stroke: #000000; stroke-width: 0.281488"/>
    <path d="M 278.060449 196.316874 
L 234.977858 134.052999 
" clip-path="url(#p0eeb3029ef)" style="fill: none; stroke: #000000; stroke-width: 0.115029"/>
    <path d="M 140.15328 228.500258 
L 53.679953 250.231854 
" clip-path="url(#p0eeb3029ef)" style="fill: none; stroke: #000000; stroke-width: 0.052641"/>
    <path d="M 140.15328 228.500258 
L 183.049643 271.151463 
" clip-path="url(#p0eeb3029ef)" style="fill: none; stroke: #000000; stroke-width: 0.053272"/>
    <path d="M 140.15328 228.500258 
L 142.163625 276.786231 
" clip-path="url(#p0eeb3029ef)" style="fill: none; stroke: #000000; stroke-width: 0.262207"/>
    <path d="M 140.15328 228.500258 
L 73.217737 136.380684 
" clip-path="url(#p0eeb3029ef)" style="fill: none; stroke: #000000; stroke-width: 0.044138"/>
    <path d="M 140.15328 228.500258 
L 79.568882 216.225228 
" clip-path="url(#p0eeb3029ef)" style="fill: none; stroke: #000000; stroke-width: 0.075911"/>
    <path d="M 140.15328 228.500258 
L 75.794545 268.15674 
" clip-path="url(#p0eeb3029ef)" style="fill: none; stroke: #000000; stroke-width: 0.001759"/>
    <path d="M 140.15328 228.500258 
L 175.025007 190.690658 
" clip-path="url(#p0eeb3029ef)" style="fill: none; stroke: #000000; stroke-width: 0.208164"/>
    <path d="M 140.15328 228.500258 
L 220.046103 252.162276 
" clip-path="url(#p0eeb3029ef)" style="fill: none; stroke: #000000; stroke-width: 0.216251"/>
    <path d="M 140.15328 228.500258 
L 95.673002 266.33434 
" clip-path="url(#p0eeb3029ef)" style="fill: none; stroke: #000000; stroke-width: 0.30911"/>
    <path d="M 53.679953 250.231854 
L 110.579065 297.876386 
" clip-path="url(#p0eeb3029ef)" style="fill: none; stroke: #000000; stroke-width: 0.11178"/>
    <path d="M 53.679953 250.231854 
L 53.765908 224.339116 
" clip-path="url(#p0eeb3029ef)" style="fill: none; stroke: #000000; stroke-width: 0.15909"/>
    <path d="M 53.679953 250.231854 
L 142.163625 276.786231 
" clip-path="url(#p0eeb3029ef)" style="fill: none; stroke: #000000; stroke-width: 0.032204"/>
    <path d="M 53.679953 250.231854 
L 73.217737 136.380684 
" clip-path="url(#p0eeb3029ef)" style="fill: none; stroke: #000000; stroke-width: 0.013019"/>
    <path d="M 53.679953 250.231854 
L 79.568882 216.225228 
" clip-path="url(#p0eeb3029ef)" style="fill: none; stroke: #000000; stroke-width: 0.324708"/>
    <path d="M 53.679953 250.231854 
L 75.794545 268.15674 
" clip-path="url(#p0eeb3029ef)" style="fill: none; stroke: #000000; stroke-width: 0.535375"/>
    <path d="M 53.679953 250.231854 
L 36.252893 321.69686 
" clip-path="url(#p0eeb3029ef)" style="fill: none; stroke: #000000; stroke-width: 0.08238"/>
    <path d="M 53.679953 250.231854 
L 95.673002 266.33434 
" clip-path="url(#p0eeb3029ef)" style="fill: none; stroke: #000000; stroke-width: 0.223223"/>
    <path d="M 110.579065 297.876386 
L 179.477399 311.698256 
" clip-path="url(#p0eeb3029ef)" style="fill: none; stroke: #000000; stroke-width: 0.591679"/>
    <path d="M 110.579065 297.876386 
L 53.765908 224.339116 
" clip-path="url(#p0eeb3029ef)" style="fill: none; stroke: #000000; stroke-width: 0.012723"/>
    <path d="M 110.579065 297.876386 
L 183.049643 271.151463 
" clip-path="url(#p0eeb3029ef)" style="fill: none; stroke: #000000; stroke-width: 0.117451"/>
    <path d="M 110.579065 297.876386 
L 142.163625 276.786231 
" clip-path="url(#p0eeb3029ef)" style="fill: none; stroke: #000000; stroke-width: 0.281112"/>
    <path d="M 110.579065 297.876386 
L 250.15734 298.069634 
" clip-path="url(#p0eeb3029ef)" style="fill: none; stroke: #000000; stroke-width: 0.191311"/>
    <path d="M 110.579065 297.876386 
L 79.568882 216.225228 
" clip-path="url(#p0eeb3029ef)" style="fill: none; stroke: #000000; stroke-width: 0.432475"/>
    <path d="M 110.579065 297.876386 
L 75.794545 268.15674 
" clip-path="url(#p0eeb3029ef)" style="fill: none; stroke: #000000; stroke-width: 0.009621"/>
    <path d="M 110.579065 297.876386 
L 36.252893 321.69686 
" clip-path="url(#p0eeb3029ef)" style="fill: none; stroke: #000000; stroke-width: 0.130938"/>
    <path d="M 110.579065 297.876386 
L 95.673002 266.33434 
" clip-path="url(#p0eeb3029ef)" style="fill: none; stroke: #000000; stroke-width: 0.371254"/>
    <path d="M 218.190427 223.760737 
L 179.477399 311.698256 
" clip-path="url(#p0eeb3029ef)" style="fill: none; stroke: #000000; stroke-width: 0.06762"/>
    <path d="M 218.190427 223.760737 
L 183.049643 271.151463 
" clip-path="url(#p0eeb3029ef)" style="fill: none; stroke: #000000; stroke-width: 0.060692"/>
    <path d="M 218.190427 223.760737 
L 142.163625 276.786231 
" clip-path="url(#p0eeb3029ef)" style="fill: none; stroke: #000000; stroke-width: 0.191608"/>
    <path d="M 218.190427 223.760737 
L 250.15734 298.069634 
" clip-path="url(#p0eeb3029ef)" style="fill: none; stroke: #000000; stroke-width: 0.176378"/>
    <path d="M 218.190427 223.760737 
L 175.025007 190.690658 
" clip-path="url(#p0eeb3029ef)" style="fill: none; stroke: #000000; stroke-width: 0.037818"/>
    <path d="M 218.190427 223.760737 
L 220.046103 252.162276 
" clip-path="url(#p0eeb3029ef)" style="fill: none; stroke: #000000; stroke-width: 0.13514"/>
    <path d="M 218.190427 223.760737 
L 247.924647 225.960806 
" clip-path="url(#p0eeb3029ef)" style="fill: none; stroke: #000000; stroke-width: 0.06712"/>
    <path d="M 218.190427 223.760737 
L 234.977858 134.052999 
" clip-path="url(#p0eeb3029ef)" style="fill: none; stroke: #000000; stroke-width: 0.231667"/>
    <path d="M 192.940931 71.759149 
L 73.217737 136.380684 
" clip-path="url(#p0eeb3029ef)" style="fill: none; stroke: #000000; stroke-width: 0.008768"/>
    <path d="M 192.940931 71.759149 
L 277.518549 92.611238 
" clip-path="url(#p0eeb3029ef)" style="fill: none; stroke: #000000; stroke-width: 0.164787"/>
    <path d="M 192.940931 71.759149 
L 234.977858 134.052999 
" clip-path="url(#p0eeb3029ef)" style="fill: none; stroke: #000000; stroke-width: 0.144171"/>
    <path d="M 179.477399 311.698256 
L 183.049643 271.151463 
" clip-path="url(#p0eeb3029ef)" style="fill: none; stroke: #000000; stroke-width: 0.250172"/>
    <path d="M 179.477399 311.698256 
L 142.163625 276.786231 
" clip-path="url(#p0eeb3029ef)" style="fill: none; stroke: #000000; stroke-width: 0.141411"/>
    <path d="M 179.477399 311.698256 
L 250.15734 298.069634 
" clip-path="url(#p0eeb3029ef)" style="fill: none; stroke: #000000; stroke-width: 0.301309"/>
    <path d="M 179.477399 311.698256 
L 175.025007 190.690658 
" clip-path="url(#p0eeb3029ef)" style="fill: none; stroke: #000000; stroke-width: 0.003789"/>
    <path d="M 179.477399 311.698256 
L 220.046103 252.162276 
" clip-path="url(#p0eeb3029ef)" style="fill: none; stroke: #000000; stroke-width: 0.073207"/>
    <path d="M 179.477399 311.698256 
L 95.673002 266.33434 
" clip-path="url(#p0eeb3029ef)" style="fill: none; stroke: #000000; stroke-width: 0.008174"/>
    <path d="M 53.765908 224.339116 
L 183.049643 271.151463 
" clip-path="url(#p0eeb3029ef)" style="fill: none; stroke: #000000; stroke-width: 0.107512"/>
    <path d="M 53.765908 224.339116 
L 79.568882 216.225228 
" clip-path="url(#p0eeb3029ef)" style="fill: none; stroke: #000000; stroke-width: 0.089878"/>
    <path d="M 53.765908 224.339116 
L 75.794545 268.15674 
" clip-path="url(#p0eeb3029ef)" style="fill: none; stroke: #000000; stroke-width: 0.469372"/>
    <path d="M 53.765908 224.339116 
L 175.025007 190.690658 
" clip-path="url(#p0eeb3029ef)" style="fill: none; stroke: #000000; stroke-width: 0.046238"/>
    <path d="M 53.765908 224.339116 
L 36.252893 321.69686 
" clip-path="url(#p0eeb3029ef)" style="fill: none; stroke: #000000; stroke-width: 0.102299"/>
    <path d="M 183.049643 271.151463 
L 142.163625 276.786231 
" clip-path="url(#p0eeb3029ef)" style="fill: none; stroke: #000000; stroke-width: 0.024354"/>
    <path d="M 183.049643 271.151463 
L 250.15734 298.069634 
" clip-path="url(#p0eeb3029ef)" style="fill: none; stroke: #000000; stroke-width: 0.096103"/>
    <path d="M 183.049643 271.151463 
L 75.794545 268.15674 
" clip-path="url(#p0eeb3029ef)" style="fill: none; stroke: #000000; stroke-width: 0.050937"/>
    <path d="M 183.049643 271.151463 
L 220.046103 252.162276 
" clip-path="url(#p0eeb3029ef)" style="fill: none; stroke: #000000; stroke-width: 0.457146"/>
    <path d="M 183.049643 271.151463 
L 247.924647 225.960806 
" clip-path="url(#p0eeb3029ef)" style="fill: none; stroke: #000000; stroke-width: 0.284871"/>
    <path d="M 142.163625 276.786231 
L 79.568882 216.225228 
" clip-path="url(#p0eeb3029ef)" style="fill: none; stroke: #000000; stroke-width: 0.107292"/>
    <path d="M 142.163625 276.786231 
L 175.025007 190.690658 
" clip-path="url(#p0eeb3029ef)" style="fill: none; stroke: #000000; stroke-width: 0.011163"/>
    <path d="M 142.163625 276.786231 
L 220.046103 252.162276 
" clip-path="url(#p0eeb3029ef)" style="fill: none; stroke: #000000; stroke-width: 0.007997"/>
    <path d="M 142.163625 276.786231 
L 95.673002 266.33434 
" clip-path="url(#p0eeb3029ef)" style="fill: none; stroke: #000000; stroke-width: 0.283117"/>
    <path d="M 73.217737 136.380684 
L 79.568882 216.225228 
" clip-path="url(#p0eeb3029ef)" style="fill: none; stroke: #000000; stroke-width: 0.18729"/>
    <path d="M 73.217737 136.380684 
L 75.794545 268.15674 
" clip-path="url(#p0eeb3029ef)" style="fill: none; stroke: #000000; stroke-width: 0.014729"/>
    <path d="M 73.217737 136.380684 
L 175.025007 190.690658 
" clip-path="url(#p0eeb3029ef)" style="fill: none; stroke: #000000; stroke-width: 0.002368"/>
    <path d="M 73.217737 136.380684 
L 95.673002 266.33434 
" clip-path="url(#p0eeb3029ef)" style="fill: none; stroke: #000000; stroke-width: 0.043018"/>
    <path d="M 250.15734 298.069634 
L 312.947107 198.5337 
" clip-path="url(#p0eeb3029ef)" style="fill: none; stroke: #000000; stroke-width: 0.225405"/>
    <path d="M 250.15734 298.069634 
L 247.924647 225.960806 
" clip-path="url(#p0eeb3029ef)" style="fill: none; stroke: #000000; stroke-width: 0.132042"/>
    <path d="M 297.653746 134.616906 
L 312.947107 198.5337 
" clip-path="url(#p0eeb3029ef)" style="fill: none; stroke: #000000; stroke-width: 0.139679"/>
    <path d="M 297.653746 134.616906 
L 277.518549 92.611238 
" clip-path="url(#p0eeb3029ef)" style="fill: none; stroke: #000000; stroke-width: 0.329645"/>
    <path d="M 297.653746 134.616906 
L 247.924647 225.960806 
" clip-path="url(#p0eeb3029ef)" style="fill: none; stroke: #000000; stroke-width: 0.138419"/>
    <path d="M 297.653746 134.616906 
L 234.977858 134.052999 
" clip-path="url(#p0eeb3029ef)" style="fill: none; stroke: #000000; stroke-width: 0.31494"/>
    <path d="M 79.568882 216.225228 
L 75.794545 268.15674 
" clip-path="url(#p0eeb3029ef)" style="fill: none; stroke: #000000; stroke-width: 0.096063"/>
    <path d="M 79.568882 216.225228 
L 175.025007 190.690658 
" clip-path="url(#p0eeb3029ef)" style="fill: none; stroke: #000000; stroke-width: 0.03073"/>
    <path d="M 79.568882 216.225228 
L 36.252893 321.69686 
" clip-path="url(#p0eeb3029ef)" style="fill: none; stroke: #000000; stroke-width: 0.041968"/>
    <path d="M 79.568882 216.225228 
L 95.673002 266.33434 
" clip-path="url(#p0eeb3029ef)" style="fill: none; stroke: #000000; stroke-width: 0.499461"/>
    <path d="M 75.794545 268.15674 
L 175.025007 190.690658 
" clip-path="url(#p0eeb3029ef)" style="fill: none; stroke: #000000; stroke-width: 0.05765"/>
    <path d="M 75.794545 268.15674 
L 36.252893 321.69686 
" clip-path="url(#p0eeb3029ef)" style="fill: none; stroke: #000000; stroke-width: 0.086851"/>
    <path d="M 75.794545 268.15674 
L 247.924647 225.960806 
" clip-path="url(#p0eeb3029ef)" style="fill: none; stroke: #000000; stroke-width: 0.06941"/>
    <path d="M 312.947107 198.5337 
L 220.046103 252.162276 
" clip-path="url(#p0eeb3029ef)" style="fill: none; stroke: #000000; stroke-width: 0.058164"/>
    <path d="M 312.947107 198.5337 
L 277.518549 92.611238 
" clip-path="url(#p0eeb3029ef)" style="fill: none; stroke: #000000; stroke-width: 0.137784"/>
    <path d="M 312.947107 198.5337 
L 247.924647 225.960806 
" clip-path="url(#p0eeb3029ef)" style="fill: none; stroke: #000000; stroke-width: 0.125281"/>
    <path d="M 312.947107 198.5337 
L 234.977858 134.052999 
" clip-path="url(#p0eeb3029ef)" style="fill: none; stroke: #000000; stroke-width: 0.045192"/>
    <path d="M 175.025007 190.690658 
L 220.046103 252.162276 
" clip-path="url(#p0eeb3029ef)" style="fill: none; stroke: #000000; stroke-width: 0.056323"/>
    <path d="M 175.025007 190.690658 
L 95.673002 266.33434 
" clip-path="url(#p0eeb3029ef)" style="fill: none; stroke: #000000; stroke-width: 0.087418"/>
    <path d="M 175.025007 190.690658 
L 234.977858 134.052999 
" clip-path="url(#p0eeb3029ef)" style="fill: none; stroke: #000000; stroke-width: 0.000895"/>
    <path d="M 220.046103 252.162276 
L 247.924647 225.960806 
" clip-path="url(#p0eeb3029ef)" style="fill: none; stroke: #000000; stroke-width: 0.452882"/>
    <path d="M 220.046103 252.162276 
L 234.977858 134.052999 
" clip-path="url(#p0eeb3029ef)" style="fill: none; stroke: #000000; stroke-width: 0.044867"/>
    <path d="M 36.252893 321.69686 
L 95.673002 266.33434 
" clip-path="url(#p0eeb3029ef)" style="fill: none; stroke: #000000; stroke-width: 0.054051"/>
    <path d="M 277.518549 92.611238 
L 234.977858 134.052999 
" clip-path="url(#p0eeb3029ef)" style="fill: none; stroke: #000000; stroke-width: 0.227086"/>
    <path d="M 247.924647 225.960806 
L 234.977858 134.052999 
" clip-path="url(#p0eeb3029ef)" style="fill: none; stroke: #000000; stroke-width: 0.057918"/>
   </g>
   <g id="matplotlib.axis_1">
    <g id="xtick_1"/>
    <g id="xtick_2"/>
    <g id="xtick_3"/>
    <g id="xtick_4"/>
    <g id="xtick_5"/>
   </g>
   <g id="matplotlib.axis_2">
    <g id="ytick_1"/>
    <g id="ytick_2"/>
    <g id="ytick_3"/>
    <g id="ytick_4"/>
    <g id="ytick_5"/>
    <g id="ytick_6"/>
    <g id="ytick_7"/>
    <g id="ytick_8"/>
   </g>
   <g id="PathCollection_1">
    <path d="M 247.23798 185.471672 
C 249.212615 185.471672 251.106639 184.687141 252.502916 183.290864 
C 253.899193 181.894587 254.683724 180.000563 254.683724 178.025929 
C 254.683724 176.051294 253.899193 174.15727 252.502916 172.760993 
C 251.106639 171.364716 249.212615 170.580185 247.23798 170.580185 
C 245.263346 170.580185 243.369322 171.364716 241.973045 172.760993 
C 240.576768 174.15727 239.792237 176.051294 239.792237 178.025929 
C 239.792237 180.000563 240.576768 181.894587 241.973045 183.290864 
C 243.369322 184.687141 245.263346 185.471672 247.23798 185.471672 
z
" clip-path="url(#p0eeb3029ef)" style="fill: #ffd92f; stroke: #000000"/>
    <path d="M 214.078867 285.342869 
C 215.594199 285.342869 217.04767 284.740822 218.119171 283.669321 
C 219.190672 282.59782 219.79272 281.144348 219.79272 279.629017 
C 219.79272 278.113685 219.190672 276.660214 218.119171 275.588713 
C 217.04767 274.517212 215.594199 273.915164 214.078867 273.915164 
C 212.563536 273.915164 211.110064 274.517212 210.038563 275.588713 
C 208.967062 276.660214 208.365015 278.113685 208.365015 279.629017 
C 208.365015 281.144348 208.967062 282.59782 210.038563 283.669321 
C 211.110064 284.740822 212.563536 285.342869 214.078867 285.342869 
z
" clip-path="url(#p0eeb3029ef)" style="fill: #ffd92f; stroke: #000000"/>
    <path d="M 61.807865 296.711897 
C 63.054637 296.711897 64.250513 296.21655 65.132114 295.334949 
C 66.013715 294.453347 66.509063 293.257472 66.509063 292.0107 
C 66.509063 290.763928 66.013715 289.568052 65.132114 288.686451 
C 64.250513 287.80485 63.054637 287.309502 61.807865 287.309502 
C 60.561093 287.309502 59.365217 287.80485 58.483616 288.686451 
C 57.602015 289.568052 57.106667 290.763928 57.106667 292.0107 
C 57.106667 293.257472 57.602015 294.453347 58.483616 295.334949 
C 59.365217 296.21655 60.561093 296.711897 61.807865 296.711897 
z
" clip-path="url(#p0eeb3029ef)" style="fill: #66c2a5; stroke: #000000"/>
    <path d="M 168.5957 101.089933 
C 170.026592 101.089933 171.399072 100.521433 172.410865 99.509639 
C 173.422659 98.497846 173.991159 97.125366 173.991159 95.694474 
C 173.991159 94.263582 173.422659 92.891102 172.410865 91.879309 
C 171.399072 90.867515 170.026592 90.299016 168.5957 90.299016 
C 167.164808 90.299016 165.792328 90.867515 164.780535 91.879309 
C 163.768741 92.891102 163.200241 94.263582 163.200241 95.694474 
C 163.200241 97.125366 163.768741 98.497846 164.780535 99.509639 
C 165.792328 100.521433 167.164808 101.089933 168.5957 101.089933 
z
" clip-path="url(#p0eeb3029ef)" style="fill: #8da0cb; stroke: #000000"/>
    <path d="M 114.607606 221.669938 
C 116.105693 221.669938 117.542624 221.074741 118.601932 220.015434 
C 119.66124 218.956126 120.256436 217.519195 120.256436 216.021107 
C 120.256436 214.52302 119.66124 213.086089 118.601932 212.026781 
C 117.542624 210.967473 116.105693 210.372277 114.607606 210.372277 
C 113.109518 210.372277 111.672587 210.967473 110.613279 212.026781 
C 109.553971 213.086089 108.958775 214.52302 108.958775 216.021107 
C 108.958775 217.519195 109.553971 218.956126 110.613279 220.015434 
C 111.672587 221.074741 113.109518 221.669938 114.607606 221.669938 
z
" clip-path="url(#p0eeb3029ef)" style="fill: #66c2a5; stroke: #000000"/>
    <path d="M 238.760104 67.13028 
C 242.73474 67.13028 246.54712 65.551141 249.357612 62.740649 
C 252.168104 59.930157 253.747244 56.117776 253.747244 52.14314 
C 253.747244 48.168505 252.168104 44.356124 249.357612 41.545632 
C 246.54712 38.73514 242.73474 37.156001 238.760104 37.156001 
C 234.785468 37.156001 230.973088 38.73514 228.162595 41.545632 
C 225.352103 44.356124 223.772964 48.168505 223.772964 52.14314 
C 223.772964 56.117776 225.352103 59.930157 228.162595 62.740649 
C 230.973088 65.551141 234.785468 67.13028 238.760104 67.13028 
z
" clip-path="url(#p0eeb3029ef)" style="fill: #8da0cb; stroke: #000000"/>
    <path d="M 141.277993 213.177549 
C 145.270077 213.177549 149.099192 211.591478 151.922022 208.768648 
C 154.744851 205.945819 156.330923 202.116703 156.330923 198.12462 
C 156.330923 194.132536 154.744851 190.30342 151.922022 187.480591 
C 149.099192 184.657762 145.270077 183.07169 141.277993 183.07169 
C 137.285909 183.07169 133.456794 184.657762 130.633964 187.480591 
C 127.811135 190.30342 126.225063 194.132536 126.225063 198.12462 
C 126.225063 202.116703 127.811135 205.945819 130.633964 208.768648 
C 133.456794 211.591478 137.285909 213.177549 141.277993 213.177549 
z
" clip-path="url(#p0eeb3029ef)" style="fill: #66c2a5; stroke: #000000"/>
    <path d="M 253.698626 96.85118 
C 256.818664 96.85118 259.811333 95.611576 262.017532 93.405376 
C 264.223732 91.199176 265.463336 88.206508 265.463336 85.08647 
C 265.463336 81.966433 264.223732 78.973764 262.017532 76.767564 
C 259.811333 74.561365 256.818664 73.321761 253.698626 73.321761 
C 250.578589 73.321761 247.58592 74.561365 245.37972 76.767564 
C 243.173521 78.973764 241.933917 81.966433 241.933917 85.08647 
C 241.933917 88.206508 243.173521 91.199176 245.37972 93.405376 
C 247.58592 95.611576 250.578589 96.85118 253.698626 96.85118 
z
" clip-path="url(#p0eeb3029ef)" style="fill: #8da0cb; stroke: #000000"/>
    <path d="M 74.757856 257.481099 
C 76.293408 257.481099 77.766275 256.871018 78.852074 255.785219 
C 79.937873 254.699419 80.547955 253.226553 80.547955 251.691001 
C 80.547955 250.155449 79.937873 248.682582 78.852074 247.596783 
C 77.766275 246.510983 76.293408 245.900902 74.757856 245.900902 
C 73.222304 245.900902 71.749437 246.510983 70.663638 247.596783 
C 69.577839 248.682582 68.967757 250.155449 68.967757 251.691001 
C 68.967757 253.226553 69.577839 254.699419 70.663638 255.785219 
C 71.749437 256.871018 73.222304 257.481099 74.757856 257.481099 
z
" clip-path="url(#p0eeb3029ef)" style="fill: #66c2a5; stroke: #000000"/>
    <path d="M 255.934869 119.722664 
C 257.281191 119.722664 258.572551 119.187765 259.524544 118.235772 
C 260.476537 117.283779 261.011437 115.992418 261.011437 114.646097 
C 261.011437 113.299776 260.476537 112.008415 259.524544 111.056422 
C 258.572551 110.104429 257.281191 109.56953 255.934869 109.56953 
C 254.588548 109.56953 253.297187 110.104429 252.345194 111.056422 
C 251.393201 112.008415 250.858302 113.299776 250.858302 114.646097 
C 250.858302 115.992418 251.393201 117.283779 252.345194 118.235772 
C 253.297187 119.187765 254.588548 119.722664 255.934869 119.722664 
z
" clip-path="url(#p0eeb3029ef)" style="fill: #8da0cb; stroke: #000000"/>
    <path d="M 111.884257 258.429847 
C 114.915522 258.429847 117.823041 257.225513 119.966469 255.082085 
C 122.109897 252.938658 123.314231 250.031138 123.314231 246.999873 
C 123.314231 243.968609 122.109897 241.061089 119.966469 238.917662 
C 117.823041 236.774234 114.915522 235.5699 111.884257 235.5699 
C 108.852993 235.5699 105.945473 236.774234 103.802046 238.917662 
C 101.658618 241.061089 100.454284 243.968609 100.454284 246.999873 
C 100.454284 250.031138 101.658618 252.938658 103.802046 255.082085 
C 105.945473 257.225513 108.852993 258.429847 111.884257 258.429847 
z
" clip-path="url(#p0eeb3029ef)" style="fill: #66c2a5; stroke: #000000"/>
    <path d="M 128.587858 299.279783 
C 130.280747 299.279783 131.904528 298.607191 133.101581 297.410137 
C 134.298635 296.213084 134.971227 294.589303 134.971227 292.896414 
C 134.971227 291.203525 134.298635 289.579744 133.101581 288.38269 
C 131.904528 287.185637 130.280747 286.513045 128.587858 286.513045 
C 126.894969 286.513045 125.271188 287.185637 124.074134 288.38269 
C 122.877081 289.579744 122.204489 291.203525 122.204489 292.896414 
C 122.204489 294.589303 122.877081 296.213084 124.074134 297.410137 
C 125.271188 298.607191 126.894969 299.279783 128.587858 299.279783 
z
" clip-path="url(#p0eeb3029ef)" style="fill: #66c2a5; stroke: #000000"/>
    <path d="M 131.867592 127.164783 
C 133.002742 127.164783 134.091551 126.713784 134.894223 125.911112 
C 135.696895 125.10844 136.147895 124.019631 136.147895 122.884481 
C 136.147895 121.749332 135.696895 120.660522 134.894223 119.85785 
C 134.091551 119.055178 133.002742 118.604179 131.867592 118.604179 
C 130.732443 118.604179 129.643633 119.055178 128.840962 119.85785 
C 128.03829 120.660522 127.58729 121.749332 127.58729 122.884481 
C 127.58729 124.019631 128.03829 125.10844 128.840962 125.911112 
C 129.643633 126.713784 130.732443 127.164783 131.867592 127.164783 
z
" clip-path="url(#p0eeb3029ef)" style="fill: #8da0cb; stroke: #000000"/>
    <path d="M 177.834846 230.007673 
C 178.427578 230.007673 178.996112 229.772178 179.415236 229.353054 
C 179.834361 228.933929 180.069855 228.365395 180.069855 227.772664 
C 180.069855 227.179932 179.834361 226.611398 179.415236 226.192274 
C 178.996112 225.773149 178.427578 225.537655 177.834846 225.537655 
C 177.242115 225.537655 176.673581 225.773149 176.254456 226.192274 
C 175.835332 226.611398 175.599837 227.179932 175.599837 227.772664 
C 175.599837 228.365395 175.835332 228.933929 176.254456 229.353054 
C 176.673581 229.772178 177.242115 230.007673 177.834846 230.007673 
z
" clip-path="url(#p0eeb3029ef)" style="fill: #66c2a5; stroke: #000000"/>
    <path d="M 36.712963 272.925048 
C 38.34945 272.925048 39.91913 272.274865 41.076301 271.117694 
C 42.233472 269.960523 42.883655 268.390843 42.883655 266.754356 
C 42.883655 265.11787 42.233472 263.548189 41.076301 262.391019 
C 39.91913 261.233848 38.34945 260.583665 36.712963 260.583665 
C 35.076477 260.583665 33.506797 261.233848 32.349626 262.391019 
C 31.192455 263.548189 30.542272 265.11787 30.542272 266.754356 
C 30.542272 268.390843 31.192455 269.960523 32.349626 271.117694 
C 33.506797 272.274865 35.076477 272.925048 36.712963 272.925048 
z
" clip-path="url(#p0eeb3029ef)" style="fill: #66c2a5; stroke: #000000"/>
    <path d="M 161.296909 255.356867 
C 162.776291 255.356867 164.195281 254.769102 165.241362 253.723021 
C 166.287444 252.676939 166.875209 251.257949 166.875209 249.778567 
C 166.875209 248.299184 166.287444 246.880194 165.241362 245.834113 
C 164.195281 244.788032 162.776291 244.200267 161.296909 244.200267 
C 159.817526 244.200267 158.398536 244.788032 157.352455 245.834113 
C 156.306374 246.880194 155.718609 248.299184 155.718609 249.778567 
C 155.718609 251.257949 156.306374 252.676939 157.352455 253.723021 
C 158.398536 254.769102 159.817526 255.356867 161.296909 255.356867 
z
" clip-path="url(#p0eeb3029ef)" style="fill: #66c2a5; stroke: #000000"/>
    <path d="M 127.752903 274.522059 
C 130.148557 274.522059 132.446415 273.570256 134.140398 271.876272 
C 135.834382 270.182288 136.786186 267.884431 136.786186 265.488777 
C 136.786186 263.093122 135.834382 260.795265 134.140398 259.101281 
C 132.446415 257.407297 130.148557 256.455494 127.752903 256.455494 
C 125.357248 256.455494 123.059391 257.407297 121.365407 259.101281 
C 119.671424 260.795265 118.71962 263.093122 118.71962 265.488777 
C 118.71962 267.884431 119.671424 270.182288 121.365407 271.876272 
C 123.059391 273.570256 125.357248 274.522059 127.752903 274.522059 
z
" clip-path="url(#p0eeb3029ef)" style="fill: #66c2a5; stroke: #000000"/>
    <path d="M 262.13291 248.871811 
C 264.39653 248.871811 266.567743 247.972465 268.168365 246.371844 
C 269.768986 244.771222 270.668332 242.600009 270.668332 240.336389 
C 270.668332 238.072768 269.768986 235.901555 268.168365 234.300934 
C 266.567743 232.700312 264.39653 231.800966 262.13291 231.800966 
C 259.869289 231.800966 257.698076 232.700312 256.097455 234.300934 
C 254.496833 235.901555 253.597487 238.072768 253.597487 240.336389 
C 253.597487 242.600009 254.496833 244.771222 256.097455 246.371844 
C 257.698076 247.972465 259.869289 248.871811 262.13291 248.871811 
z
" clip-path="url(#p0eeb3029ef)" style="fill: #ffd92f; stroke: #000000"/>
    <path d="M 146.724648 137.27956 
C 148.010439 137.27956 149.243741 136.76871 150.152933 135.859518 
C 151.062124 134.950327 151.572975 133.717025 151.572975 132.431234 
C 151.572975 131.145443 151.062124 129.912141 150.152933 129.002949 
C 149.243741 128.093757 148.010439 127.582907 146.724648 127.582907 
C 145.438857 127.582907 144.205555 128.093757 143.296363 129.002949 
C 142.387172 129.912141 141.876321 131.145443 141.876321 132.431234 
C 141.876321 133.717025 142.387172 134.950327 143.296363 135.859518 
C 144.205555 136.76871 145.438857 137.27956 146.724648 137.27956 
z
" clip-path="url(#p0eeb3029ef)" style="fill: #8da0cb; stroke: #000000"/>
    <path d="M 88.843837 235.153092 
C 90.228684 235.153092 91.556997 234.602886 92.536232 233.623651 
C 93.515467 232.644417 94.065673 231.316103 94.065673 229.931256 
C 94.065673 228.546409 93.515467 227.218095 92.536232 226.23886 
C 91.556997 225.259625 90.228684 224.70942 88.843837 224.70942 
C 87.45899 224.70942 86.130676 225.259625 85.151441 226.23886 
C 84.172206 227.218095 83.622001 228.546409 83.622001 229.931256 
C 83.622001 231.316103 84.172206 232.644417 85.151441 233.623651 
C 86.130676 234.602886 87.45899 235.153092 88.843837 235.153092 
z
" clip-path="url(#p0eeb3029ef)" style="fill: #66c2a5; stroke: #000000"/>
    <path d="M 278.060449 205.515652 
C 280.499994 205.515652 282.839949 204.546411 284.564968 202.821392 
C 286.289986 201.096374 287.259228 198.756418 287.259228 196.316874 
C 287.259228 193.877329 286.289986 191.537374 284.564968 189.812355 
C 282.839949 188.087337 280.499994 187.118095 278.060449 187.118095 
C 275.620905 187.118095 273.280949 188.087337 271.555931 189.812355 
C 269.830912 191.537374 268.861671 193.877329 268.861671 196.316874 
C 268.861671 198.756418 269.830912 201.096374 271.555931 202.821392 
C 273.280949 204.546411 275.620905 205.515652 278.060449 205.515652 
z
" clip-path="url(#p0eeb3029ef)" style="fill: #ffd92f; stroke: #000000"/>
    <path d="M 140.15328 238.746338 
C 142.870573 238.746338 145.476938 237.666747 147.398353 235.745331 
C 149.319769 233.823915 150.399361 231.21755 150.399361 228.500258 
C 150.399361 225.782965 149.319769 223.176601 147.398353 221.255185 
C 145.476938 219.333769 142.870573 218.254177 140.15328 218.254177 
C 137.435988 218.254177 134.829623 219.333769 132.908207 221.255185 
C 130.986791 223.176601 129.9072 225.782965 129.9072 228.500258 
C 129.9072 231.21755 130.986791 233.823915 132.908207 235.745331 
C 134.829623 237.666747 137.435988 238.746338 140.15328 238.746338 
z
" clip-path="url(#p0eeb3029ef)" style="fill: #66c2a5; stroke: #000000"/>
    <path d="M 53.679953 256.415639 
C 55.319912 256.415639 56.892924 255.764077 58.05255 254.60445 
C 59.212176 253.444824 59.863739 251.871813 59.863739 250.231854 
C 59.863739 248.591894 59.212176 247.018883 58.05255 245.859257 
C 56.892924 244.699631 55.319912 244.048068 53.679953 244.048068 
C 52.039994 244.048068 50.466983 244.699631 49.307357 245.859257 
C 48.14773 247.018883 47.496168 248.591894 47.496168 250.231854 
C 47.496168 251.871813 48.14773 253.444824 49.307357 254.60445 
C 50.466983 255.764077 52.039994 256.415639 53.679953 256.415639 
z
" clip-path="url(#p0eeb3029ef)" style="fill: #66c2a5; stroke: #000000"/>
    <path d="M 110.579065 306.78772 
C 112.942378 306.78772 115.209215 305.848766 116.88033 304.177651 
C 118.551445 302.506536 119.490399 300.239699 119.490399 297.876386 
C 119.490399 295.513072 118.551445 293.246236 116.88033 291.575121 
C 115.209215 289.904006 112.942378 288.965051 110.579065 288.965051 
C 108.215751 288.965051 105.948915 289.904006 104.2778 291.575121 
C 102.606685 293.246236 101.66773 295.513072 101.66773 297.876386 
C 101.66773 300.239699 102.606685 302.506536 104.2778 304.177651 
C 105.948915 305.848766 108.215751 306.78772 110.579065 306.78772 
z
" clip-path="url(#p0eeb3029ef)" style="fill: #66c2a5; stroke: #000000"/>
    <path d="M 218.190427 237.692633 
C 221.885209 237.692633 225.42916 236.22468 228.041765 233.612075 
C 230.65437 230.99947 232.122323 227.455519 232.122323 223.760737 
C 232.122323 220.065955 230.65437 216.522005 228.041765 213.909399 
C 225.42916 211.296794 221.885209 209.828842 218.190427 209.828842 
C 214.495645 209.828842 210.951695 211.296794 208.339089 213.909399 
C 205.726484 216.522005 204.258532 220.065955 204.258532 223.760737 
C 204.258532 227.455519 205.726484 230.99947 208.339089 233.612075 
C 210.951695 236.22468 214.495645 237.692633 218.190427 237.692633 
z
" clip-path="url(#p0eeb3029ef)" style="fill: #ffd92f; stroke: #000000"/>
    <path d="M 192.940931 78.106131 
C 194.624171 78.106131 196.238696 77.437373 197.428926 76.247143 
C 198.619156 75.056913 199.287914 73.442388 199.287914 71.759149 
C 199.287914 70.075909 198.619156 68.461384 197.428926 67.271154 
C 196.238696 66.080924 194.624171 65.412166 192.940931 65.412166 
C 191.257692 65.412166 189.643167 66.080924 188.452937 67.271154 
C 187.262707 68.461384 186.593948 70.075909 186.593948 71.759149 
C 186.593948 73.442388 187.262707 75.056913 188.452937 76.247143 
C 189.643167 77.437373 191.257692 78.106131 192.940931 78.106131 
z
" clip-path="url(#p0eeb3029ef)" style="fill: #8da0cb; stroke: #000000"/>
    <path d="M 179.477399 318.689825 
C 181.331584 318.689825 183.110077 317.953149 184.421185 316.642042 
C 185.732292 315.330934 186.468968 313.552441 186.468968 311.698256 
C 186.468968 309.84407 185.732292 308.065577 184.421185 306.75447 
C 183.110077 305.443362 181.331584 304.706686 179.477399 304.706686 
C 177.623213 304.706686 175.84472 305.443362 174.533613 306.75447 
C 173.222505 308.065577 172.485829 309.84407 172.485829 311.698256 
C 172.485829 313.552441 173.222505 315.330934 174.533613 316.642042 
C 175.84472 317.953149 177.623213 318.689825 179.477399 318.689825 
z
" clip-path="url(#p0eeb3029ef)" style="fill: #ffd92f; stroke: #000000"/>
    <path d="M 53.765908 230.488907 
C 55.396852 230.488907 56.961216 229.840926 58.114467 228.687675 
C 59.267719 227.534424 59.9157 225.97006 59.9157 224.339116 
C 59.9157 222.708172 59.267719 221.143808 58.114467 219.990557 
C 56.961216 218.837306 55.396852 218.189325 53.765908 218.189325 
C 52.134965 218.189325 50.570601 218.837306 49.417349 219.990557 
C 48.264098 221.143808 47.616117 222.708172 47.616117 224.339116 
C 47.616117 225.97006 48.264098 227.534424 49.417349 228.687675 
C 50.570601 229.840926 52.134965 230.488907 53.765908 230.488907 
z
" clip-path="url(#p0eeb3029ef)" style="fill: #66c2a5; stroke: #000000"/>
    <path d="M 183.049643 278.33159 
C 184.953835 278.33159 186.780292 277.575046 188.126759 276.228579 
C 189.473226 274.882113 190.22977 273.055655 190.22977 271.151463 
C 190.22977 269.247272 189.473226 267.420814 188.126759 266.074347 
C 186.780292 264.727881 184.953835 263.971337 183.049643 263.971337 
C 181.145452 263.971337 179.318994 264.727881 177.972527 266.074347 
C 176.62606 267.420814 175.869517 269.247272 175.869517 271.151463 
C 175.869517 273.055655 176.62606 274.882113 177.972527 276.228579 
C 179.318994 277.575046 181.145452 278.33159 183.049643 278.33159 
z
" clip-path="url(#p0eeb3029ef)" style="fill: #ffd92f; stroke: #000000"/>
    <path d="M 142.163625 287.142703 
C 144.910194 287.142703 147.54464 286.05148 149.486757 284.109363 
C 151.428875 282.167246 152.520098 279.5328 152.520098 276.786231 
C 152.520098 274.039662 151.428875 271.405216 149.486757 269.463099 
C 147.54464 267.520982 144.910194 266.429758 142.163625 266.429758 
C 139.417057 266.429758 136.782611 267.520982 134.840493 269.463099 
C 132.898376 271.405216 131.807153 274.039662 131.807153 276.786231 
C 131.807153 279.5328 132.898376 282.167246 134.840493 284.109363 
C 136.782611 286.05148 139.417057 287.142703 142.163625 287.142703 
z
" clip-path="url(#p0eeb3029ef)" style="fill: #66c2a5; stroke: #000000"/>
    <path d="M 73.217737 139.862085 
C 74.141015 139.862085 75.026602 139.495263 75.679459 138.842406 
C 76.332315 138.18955 76.699137 137.303963 76.699137 136.380684 
C 76.699137 135.457406 76.332315 134.571819 75.679459 133.918962 
C 75.026602 133.266106 74.141015 132.899284 73.217737 132.899284 
C 72.294458 132.899284 71.408871 133.266106 70.756015 133.918962 
C 70.103158 134.571819 69.736336 135.457406 69.736336 136.380684 
C 69.736336 137.303963 70.103158 138.18955 70.756015 138.842406 
C 71.408871 139.495263 72.294458 139.862085 73.217737 139.862085 
z
" clip-path="url(#p0eeb3029ef)" style="fill: #8da0cb; stroke: #000000"/>
    <path d="M 250.15734 305.841366 
C 252.218427 305.841366 254.195375 305.022487 255.652784 303.565078 
C 257.110193 302.107669 257.929072 300.130721 257.929072 298.069634 
C 257.929072 296.008547 257.110193 294.031599 255.652784 292.57419 
C 254.195375 291.116781 252.218427 290.297902 250.15734 290.297902 
C 248.096253 290.297902 246.119305 291.116781 244.661896 292.57419 
C 243.204487 294.031599 242.385608 296.008547 242.385608 298.069634 
C 242.385608 300.130721 243.204487 302.107669 244.661896 303.565078 
C 246.119305 305.022487 248.096253 305.841366 250.15734 305.841366 
z
" clip-path="url(#p0eeb3029ef)" style="fill: #ffd92f; stroke: #000000"/>
    <path d="M 297.653746 142.521291 
C 299.750013 142.521291 301.760705 141.688435 303.24299 140.20615 
C 304.725275 138.723865 305.558131 136.713174 305.558131 134.616906 
C 305.558131 132.520639 304.725275 130.509947 303.24299 129.027662 
C 301.760705 127.545377 299.750013 126.712521 297.653746 126.712521 
C 295.557479 126.712521 293.546787 127.545377 292.064502 129.027662 
C 290.582217 130.509947 289.749361 132.520639 289.749361 134.616906 
C 289.749361 136.713174 290.582217 138.723865 292.064502 140.20615 
C 293.546787 141.688435 295.557479 142.521291 297.653746 142.521291 
z
" clip-path="url(#p0eeb3029ef)" style="fill: #8da0cb; stroke: #000000"/>
    <path d="M 79.568882 221.087485 
C 80.858368 221.087485 82.095213 220.575167 83.007017 219.663363 
C 83.918821 218.751559 84.431139 217.514714 84.431139 216.225228 
C 84.431139 214.935743 83.918821 213.698897 83.007017 212.787093 
C 82.095213 211.875289 80.858368 211.362971 79.568882 211.362971 
C 78.279397 211.362971 77.042552 211.875289 76.130748 212.787093 
C 75.218944 213.698897 74.706626 214.935743 74.706626 216.225228 
C 74.706626 217.514714 75.218944 218.751559 76.130748 219.663363 
C 77.042552 220.575167 78.279397 221.087485 79.568882 221.087485 
z
" clip-path="url(#p0eeb3029ef)" style="fill: #66c2a5; stroke: #000000"/>
    <path d="M 75.794545 276.577789 
C 78.027833 276.577789 80.169952 275.690494 81.749125 274.111321 
C 83.328298 272.532147 84.215593 270.390028 84.215593 268.15674 
C 84.215593 265.923452 83.328298 263.781332 81.749125 262.202159 
C 80.169952 260.622986 78.027833 259.735691 75.794545 259.735691 
C 73.561256 259.735691 71.419137 260.622986 69.839964 262.202159 
C 68.260791 263.781332 67.373496 265.923452 67.373496 268.15674 
C 67.373496 270.390028 68.260791 272.532147 69.839964 274.111321 
C 71.419137 275.690494 73.561256 276.577789 75.794545 276.577789 
z
" clip-path="url(#p0eeb3029ef)" style="fill: #66c2a5; stroke: #000000"/>
    <path d="M 312.947107 206.017426 
C 314.931815 206.017426 316.835501 205.228894 318.238901 203.825494 
C 319.642301 202.422093 320.430834 200.518407 320.430834 198.5337 
C 320.430834 196.548992 319.642301 194.645306 318.238901 193.241906 
C 316.835501 191.838506 314.931815 191.049973 312.947107 191.049973 
C 310.9624 191.049973 309.058714 191.838506 307.655314 193.241906 
C 306.251914 194.645306 305.463381 196.548992 305.463381 198.5337 
C 305.463381 200.518407 306.251914 202.422093 307.655314 203.825494 
C 309.058714 205.228894 310.9624 206.017426 312.947107 206.017426 
z
" clip-path="url(#p0eeb3029ef)" style="fill: #ffd92f; stroke: #000000"/>
    <path d="M 175.025007 194.080331 
C 175.923958 194.080331 176.786213 193.723173 177.421867 193.087518 
C 178.057522 192.451863 178.41468 191.589609 178.41468 190.690658 
C 178.41468 189.791706 178.057522 188.929452 177.421867 188.293797 
C 176.786213 187.658142 175.923958 187.300985 175.025007 187.300985 
C 174.126055 187.300985 173.263801 187.658142 172.628146 188.293797 
C 171.992491 188.929452 171.635334 189.791706 171.635334 190.690658 
C 171.635334 191.589609 171.992491 192.451863 172.628146 193.087518 
C 173.263801 193.723173 174.126055 194.080331 175.025007 194.080331 
z
" clip-path="url(#p0eeb3029ef)" style="fill: #66c2a5; stroke: #000000"/>
    <path d="M 220.046103 263.314783 
C 223.003782 263.314783 225.840721 262.139685 227.932116 260.04829 
C 230.023511 257.956894 231.19861 255.119956 231.19861 252.162276 
C 231.19861 249.204597 230.023511 246.367658 227.932116 244.276263 
C 225.840721 242.184868 223.003782 241.00977 220.046103 241.00977 
C 217.088424 241.00977 214.251485 242.184868 212.16009 244.276263 
C 210.068695 246.367658 208.893596 249.204597 208.893596 252.162276 
C 208.893596 255.119956 210.068695 257.956894 212.16009 260.04829 
C 214.251485 262.139685 217.088424 263.314783 220.046103 263.314783 
z
" clip-path="url(#p0eeb3029ef)" style="fill: #ffd92f; stroke: #000000"/>
    <path d="M 36.252893 329.003508 
C 38.190638 329.003508 40.04928 328.233634 41.419474 326.86344 
C 42.789667 325.493247 43.559541 323.634605 43.559541 321.69686 
C 43.559541 319.759114 42.789667 317.900472 41.419474 316.530279 
C 40.04928 315.160085 38.190638 314.390211 36.252893 314.390211 
C 34.315147 314.390211 32.456505 315.160085 31.086312 316.530279 
C 29.716118 317.900472 28.946244 319.759114 28.946244 321.69686 
C 28.946244 323.634605 29.716118 325.493247 31.086312 326.86344 
C 32.456505 328.233634 34.315147 329.003508 36.252893 329.003508 
z
" clip-path="url(#p0eeb3029ef)" style="fill: #66c2a5; stroke: #000000"/>
    <path d="M 95.673002 273.34313 
C 97.531755 273.34313 99.314628 272.60464 100.628965 271.290303 
C 101.943302 269.975966 102.681792 268.193093 102.681792 266.33434 
C 102.681792 264.475587 101.943302 262.692713 100.628965 261.378376 
C 99.314628 260.064039 97.531755 259.325549 95.673002 259.325549 
C 93.814249 259.325549 92.031375 260.064039 90.717038 261.378376 
C 89.402701 262.692713 88.664211 264.475587 88.664211 266.33434 
C 88.664211 268.193093 89.402701 269.975966 90.717038 271.290303 
C 92.031375 272.60464 93.814249 273.34313 95.673002 273.34313 
z
" clip-path="url(#p0eeb3029ef)" style="fill: #66c2a5; stroke: #000000"/>
    <path d="M 277.518549 110.961003 
C 282.384964 110.961003 287.052718 109.027556 290.493792 105.586481 
C 293.934867 102.145406 295.868314 97.477652 295.868314 92.611238 
C 295.868314 87.744823 293.934867 83.077069 290.493792 79.635994 
C 287.052718 76.194919 282.384964 74.261472 277.518549 74.261472 
C 272.652134 74.261472 267.98438 76.194919 264.543306 79.635994 
C 261.102231 83.077069 259.168784 87.744823 259.168784 92.611238 
C 259.168784 97.477652 261.102231 102.145406 264.543306 105.586481 
C 267.98438 109.027556 272.652134 110.961003 277.518549 110.961003 
z
" clip-path="url(#p0eeb3029ef)" style="fill: #8da0cb; stroke: #000000"/>
    <path d="M 247.924647 233.276182 
C 249.864708 233.276182 251.725569 232.505388 253.097399 231.133558 
C 254.469229 229.761728 255.240023 227.900867 255.240023 225.960806 
C 255.240023 224.020746 254.469229 222.159884 253.097399 220.788054 
C 251.725569 219.416225 249.864708 218.64543 247.924647 218.64543 
C 245.984587 218.64543 244.123725 219.416225 242.751895 220.788054 
C 241.380066 222.159884 240.609271 224.020746 240.609271 225.960806 
C 240.609271 227.900867 241.380066 229.761728 242.751895 231.133558 
C 244.123725 232.505388 245.984587 233.276182 247.924647 233.276182 
z
" clip-path="url(#p0eeb3029ef)" style="fill: #ffd92f; stroke: #000000"/>
    <path d="M 234.977858 141.268301 
C 236.891379 141.268301 238.726784 140.508051 240.079847 139.154988 
C 241.432911 137.801925 242.193161 135.966519 242.193161 134.052999 
C 242.193161 132.139478 241.432911 130.304073 240.079847 128.95101 
C 238.726784 127.597946 236.891379 126.837696 234.977858 126.837696 
C 233.064338 126.837696 231.228932 127.597946 229.875869 128.95101 
C 228.522805 130.304073 227.762556 132.139478 227.762556 134.052999 
C 227.762556 135.966519 228.522805 137.801925 229.875869 139.154988 
C 231.228932 140.508051 233.064338 141.268301 234.977858 141.268301 
z
" clip-path="url(#p0eeb3029ef)" style="fill: #8da0cb; stroke: #000000"/>
   </g>
   <g id="text_1">
    <!-- $\bf(b)$ topic groupings -->
    <g transform="translate(7.2 17.84)scale(0.14 -0.14)">
     <defs>
      <path id="DejaVuSans-Bold-28" d="M 2413 -844 
L 1484 -844 
Q 1006 -72 778 623 
Q 550 1319 550 2003 
Q 550 2688 779 3389 
Q 1009 4091 1484 4856 
L 2413 4856 
Q 2013 4116 1813 3408 
Q 1613 2700 1613 2009 
Q 1613 1319 1811 609 
Q 2009 -100 2413 -844 
z
" transform="scale(0.015625)"/>
      <path id="DejaVuSans-Bold-62" d="M 2400 722 
Q 2759 722 2948 984 
Q 3138 1247 3138 1747 
Q 3138 2247 2948 2509 
Q 2759 2772 2400 2772 
Q 2041 2772 1848 2508 
Q 1656 2244 1656 1747 
Q 1656 1250 1848 986 
Q 2041 722 2400 722 
z
M 1656 2988 
Q 1888 3294 2169 3439 
Q 2450 3584 2816 3584 
Q 3463 3584 3878 3070 
Q 4294 2556 4294 1747 
Q 4294 938 3878 423 
Q 3463 -91 2816 -91 
Q 2450 -91 2169 54 
Q 1888 200 1656 506 
L 1656 0 
L 538 0 
L 538 4863 
L 1656 4863 
L 1656 2988 
z
" transform="scale(0.015625)"/>
      <path id="DejaVuSans-Bold-29" d="M 513 -844 
Q 913 -100 1113 609 
Q 1313 1319 1313 2009 
Q 1313 2700 1113 3408 
Q 913 4116 513 4856 
L 1441 4856 
Q 1916 4091 2145 3389 
Q 2375 2688 2375 2003 
Q 2375 1319 2147 623 
Q 1919 -72 1441 -844 
L 513 -844 
z
" transform="scale(0.015625)"/>
      <path id="DejaVuSans-20" transform="scale(0.015625)"/>
      <path id="DejaVuSans-74" d="M 1172 4494 
L 1172 3500 
L 2356 3500 
L 2356 3053 
L 1172 3053 
L 1172 1153 
Q 1172 725 1289 603 
Q 1406 481 1766 481 
L 2356 481 
L 2356 0 
L 1766 0 
Q 1100 0 847 248 
Q 594 497 594 1153 
L 594 3053 
L 172 3053 
L 172 3500 
L 594 3500 
L 594 4494 
L 1172 4494 
z
" transform="scale(0.015625)"/>
      <path id="DejaVuSans-6f" d="M 1959 3097 
Q 1497 3097 1228 2736 
Q 959 2375 959 1747 
Q 959 1119 1226 758 
Q 1494 397 1959 397 
Q 2419 397 2687 759 
Q 2956 1122 2956 1747 
Q 2956 2369 2687 2733 
Q 2419 3097 1959 3097 
z
M 1959 3584 
Q 2709 3584 3137 3096 
Q 3566 2609 3566 1747 
Q 3566 888 3137 398 
Q 2709 -91 1959 -91 
Q 1206 -91 779 398 
Q 353 888 353 1747 
Q 353 2609 779 3096 
Q 1206 3584 1959 3584 
z
" transform="scale(0.015625)"/>
      <path id="DejaVuSans-70" d="M 1159 525 
L 1159 -1331 
L 581 -1331 
L 581 3500 
L 1159 3500 
L 1159 2969 
Q 1341 3281 1617 3432 
Q 1894 3584 2278 3584 
Q 2916 3584 3314 3078 
Q 3713 2572 3713 1747 
Q 3713 922 3314 415 
Q 2916 -91 2278 -91 
Q 1894 -91 1617 61 
Q 1341 213 1159 525 
z
M 3116 1747 
Q 3116 2381 2855 2742 
Q 2594 3103 2138 3103 
Q 1681 3103 1420 2742 
Q 1159 2381 1159 1747 
Q 1159 1113 1420 752 
Q 1681 391 2138 391 
Q 2594 391 2855 752 
Q 3116 1113 3116 1747 
z
" transform="scale(0.015625)"/>
      <path id="DejaVuSans-69" d="M 603 3500 
L 1178 3500 
L 1178 0 
L 603 0 
L 603 3500 
z
M 603 4863 
L 1178 4863 
L 1178 4134 
L 603 4134 
L 603 4863 
z
" transform="scale(0.015625)"/>
      <path id="DejaVuSans-63" d="M 3122 3366 
L 3122 2828 
Q 2878 2963 2633 3030 
Q 2388 3097 2138 3097 
Q 1578 3097 1268 2742 
Q 959 2388 959 1747 
Q 959 1106 1268 751 
Q 1578 397 2138 397 
Q 2388 397 2633 464 
Q 2878 531 3122 666 
L 3122 134 
Q 2881 22 2623 -34 
Q 2366 -91 2075 -91 
Q 1284 -91 818 406 
Q 353 903 353 1747 
Q 353 2603 823 3093 
Q 1294 3584 2113 3584 
Q 2378 3584 2631 3529 
Q 2884 3475 3122 3366 
z
" transform="scale(0.015625)"/>
      <path id="DejaVuSans-67" d="M 2906 1791 
Q 2906 2416 2648 2759 
Q 2391 3103 1925 3103 
Q 1463 3103 1205 2759 
Q 947 2416 947 1791 
Q 947 1169 1205 825 
Q 1463 481 1925 481 
Q 2391 481 2648 825 
Q 2906 1169 2906 1791 
z
M 3481 434 
Q 3481 -459 3084 -895 
Q 2688 -1331 1869 -1331 
Q 1566 -1331 1297 -1286 
Q 1028 -1241 775 -1147 
L 775 -588 
Q 1028 -725 1275 -790 
Q 1522 -856 1778 -856 
Q 2344 -856 2625 -561 
Q 2906 -266 2906 331 
L 2906 616 
Q 2728 306 2450 153 
Q 2172 0 1784 0 
Q 1141 0 747 490 
Q 353 981 353 1791 
Q 353 2603 747 3093 
Q 1141 3584 1784 3584 
Q 2172 3584 2450 3431 
Q 2728 3278 2906 2969 
L 2906 3500 
L 3481 3500 
L 3481 434 
z
" transform="scale(0.015625)"/>
      <path id="DejaVuSans-72" d="M 2631 2963 
Q 2534 3019 2420 3045 
Q 2306 3072 2169 3072 
Q 1681 3072 1420 2755 
Q 1159 2438 1159 1844 
L 1159 0 
L 581 0 
L 581 3500 
L 1159 3500 
L 1159 2956 
Q 1341 3275 1631 3429 
Q 1922 3584 2338 3584 
Q 2397 3584 2469 3576 
Q 2541 3569 2628 3553 
L 2631 2963 
z
" transform="scale(0.015625)"/>
      <path id="DejaVuSans-75" d="M 544 1381 
L 544 3500 
L 1119 3500 
L 1119 1403 
Q 1119 906 1312 657 
Q 1506 409 1894 409 
Q 2359 409 2629 706 
Q 2900 1003 2900 1516 
L 2900 3500 
L 3475 3500 
L 3475 0 
L 2900 0 
L 2900 538 
Q 2691 219 2414 64 
Q 2138 -91 1772 -91 
Q 1169 -91 856 284 
Q 544 659 544 1381 
z
M 1991 3584 
L 1991 3584 
z
" transform="scale(0.015625)"/>
      <path id="DejaVuSans-6e" d="M 3513 2113 
L 3513 0 
L 2938 0 
L 2938 2094 
Q 2938 2591 2744 2837 
Q 2550 3084 2163 3084 
Q 1697 3084 1428 2787 
Q 1159 2491 1159 1978 
L 1159 0 
L 581 0 
L 581 3500 
L 1159 3500 
L 1159 2956 
Q 1366 3272 1645 3428 
Q 1925 3584 2291 3584 
Q 2894 3584 3203 3211 
Q 3513 2838 3513 2113 
z
" transform="scale(0.015625)"/>
      <path id="DejaVuSans-73" d="M 2834 3397 
L 2834 2853 
Q 2591 2978 2328 3040 
Q 2066 3103 1784 3103 
Q 1356 3103 1142 2972 
Q 928 2841 928 2578 
Q 928 2378 1081 2264 
Q 1234 2150 1697 2047 
L 1894 2003 
Q 2506 1872 2764 1633 
Q 3022 1394 3022 966 
Q 3022 478 2636 193 
Q 2250 -91 1575 -91 
Q 1294 -91 989 -36 
Q 684 19 347 128 
L 347 722 
Q 666 556 975 473 
Q 1284 391 1588 391 
Q 1994 391 2212 530 
Q 2431 669 2431 922 
Q 2431 1156 2273 1281 
Q 2116 1406 1581 1522 
L 1381 1569 
Q 847 1681 609 1914 
Q 372 2147 372 2553 
Q 372 3047 722 3315 
Q 1072 3584 1716 3584 
Q 2034 3584 2315 3537 
Q 2597 3491 2834 3397 
z
" transform="scale(0.015625)"/>
     </defs>
     <use xlink:href="#DejaVuSans-Bold-28" transform="translate(0 0.015625)"/>
     <use xlink:href="#DejaVuSans-Bold-62" transform="translate(45.703125 0.015625)"/>
     <use xlink:href="#DejaVuSans-Bold-29" transform="translate(117.285156 0.015625)"/>
     <use xlink:href="#DejaVuSans-20" transform="translate(162.988281 0.015625)"/>
     <use xlink:href="#DejaVuSans-74" transform="translate(194.775391 0.015625)"/>
     <use xlink:href="#DejaVuSans-6f" transform="translate(233.984375 0.015625)"/>
     <use xlink:href="#DejaVuSans-70" transform="translate(295.166016 0.015625)"/>
     <use xlink:href="#DejaVuSans-69" transform="translate(358.642578 0.015625)"/>
     <use xlink:href="#DejaVuSans-63" transform="translate(386.425781 0.015625)"/>
     <use xlink:href="#DejaVuSans-20" transform="translate(441.40625 0.015625)"/>
     <use xlink:href="#DejaVuSans-67" transform="translate(473.193359 0.015625)"/>
     <use xlink:href="#DejaVuSans-72" transform="translate(536.669922 0.015625)"/>
     <use xlink:href="#DejaVuSans-6f" transform="translate(577.783203 0.015625)"/>
     <use xlink:href="#DejaVuSans-75" transform="translate(638.964844 0.015625)"/>
     <use xlink:href="#DejaVuSans-70" transform="translate(702.34375 0.015625)"/>
     <use xlink:href="#DejaVuSans-69" transform="translate(765.820312 0.015625)"/>
     <use xlink:href="#DejaVuSans-6e" transform="translate(793.603516 0.015625)"/>
     <use xlink:href="#DejaVuSans-67" transform="translate(856.982422 0.015625)"/>
     <use xlink:href="#DejaVuSans-73" transform="translate(920.458984 0.015625)"/>
    </g>
   </g>
  </g>
 </g>
 <defs>
  <clipPath id="p0eeb3029ef">
   <rect x="7.2" y="23.84" width="334.8" height="326.16"/>
  </clipPath>
 </defs>
</svg>
