<?xml version="1.0" encoding="utf-8" standalone="no"?>
<!DOCTYPE svg PUBLIC "-//W3C//DTD SVG 1.1//EN"
  "http://www.w3.org/Graphics/SVG/1.1/DTD/svg11.dtd">
<svg xmlns:xlink="http://www.w3.org/1999/xlink" width="394.079375pt" height="281.758125pt" viewBox="0 0 394.079375 281.758125" xmlns="http://www.w3.org/2000/svg" version="1.1">
 <metadata>
  <rdf:RDF xmlns:dc="http://purl.org/dc/elements/1.1/" xmlns:cc="http://creativecommons.org/ns#" xmlns:rdf="http://www.w3.org/1999/02/22-rdf-syntax-ns#">
   <cc:Work>
    <dc:type rdf:resource="http://purl.org/dc/dcmitype/StillImage"/>
    <dc:date>2022-05-24T19:50:56.625703</dc:date>
    <dc:format>image/svg+xml</dc:format>
    <dc:creator>
     <cc:Agent>
      <dc:title>Matplotlib v3.5.1, https://matplotlib.org/</dc:title>
     </cc:Agent>
    </dc:creator>
   </cc:Work>
  </rdf:RDF>
 </metadata>
 <defs>
  <style type="text/css">*{stroke-linejoin: round; stroke-linecap: butt}</style>
 </defs>
 <g id="figure_1">
  <g id="patch_1">
   <path d="M -0 281.758125 
L 394.079375 281.758125 
L 394.079375 0 
L -0 0 
L -0 281.758125 
z
" style="fill: none"/>
  </g>
  <g id="axes_1">
   <g id="patch_2">
    <path d="M 52.079375 241.28 
L 386.879375 241.28 
L 386.879375 23.84 
L 52.079375 23.84 
z
" style="fill: #ffffff"/>
   </g>
   <g id="matplotlib.axis_1">
    <g id="xtick_1">
     <g id="line2d_1">
      <defs>
       <path id="m9675f91ff3" d="M 0 0 
L 0 3.5 
" style="stroke: #000000; stroke-width: 0.8"/>
      </defs>
      <g>
       <use xlink:href="#m9675f91ff3" x="97.063926" y="241.28" style="stroke: #000000; stroke-width: 0.8"/>
      </g>
     </g>
     <g id="text_1">
      <!-- 0.5 -->
      <g transform="translate(89.112363 255.878438)scale(0.1 -0.1)">
       <defs>
        <path id="DejaVuSans-30" d="M 2034 4250 
Q 1547 4250 1301 3770 
Q 1056 3291 1056 2328 
Q 1056 1369 1301 889 
Q 1547 409 2034 409 
Q 2525 409 2770 889 
Q 3016 1369 3016 2328 
Q 3016 3291 2770 3770 
Q 2525 4250 2034 4250 
z
M 2034 4750 
Q 2819 4750 3233 4129 
Q 3647 3509 3647 2328 
Q 3647 1150 3233 529 
Q 2819 -91 2034 -91 
Q 1250 -91 836 529 
Q 422 1150 422 2328 
Q 422 3509 836 4129 
Q 1250 4750 2034 4750 
z
" transform="scale(0.015625)"/>
        <path id="DejaVuSans-2e" d="M 684 794 
L 1344 794 
L 1344 0 
L 684 0 
L 684 794 
z
" transform="scale(0.015625)"/>
        <path id="DejaVuSans-35" d="M 691 4666 
L 3169 4666 
L 3169 4134 
L 1269 4134 
L 1269 2991 
Q 1406 3038 1543 3061 
Q 1681 3084 1819 3084 
Q 2600 3084 3056 2656 
Q 3513 2228 3513 1497 
Q 3513 744 3044 326 
Q 2575 -91 1722 -91 
Q 1428 -91 1123 -41 
Q 819 9 494 109 
L 494 744 
Q 775 591 1075 516 
Q 1375 441 1709 441 
Q 2250 441 2565 725 
Q 2881 1009 2881 1497 
Q 2881 1984 2565 2268 
Q 2250 2553 1709 2553 
Q 1456 2553 1204 2497 
Q 953 2441 691 2322 
L 691 4666 
z
" transform="scale(0.015625)"/>
       </defs>
       <use xlink:href="#DejaVuSans-30"/>
       <use xlink:href="#DejaVuSans-2e" x="63.623047"/>
       <use xlink:href="#DejaVuSans-35" x="95.410156"/>
      </g>
     </g>
    </g>
    <g id="xtick_2">
     <g id="line2d_2">
      <g>
       <use xlink:href="#m9675f91ff3" x="167.49191" y="241.28" style="stroke: #000000; stroke-width: 0.8"/>
      </g>
     </g>
     <g id="text_2">
      <!-- 1.0 -->
      <g transform="translate(159.540348 255.878438)scale(0.1 -0.1)">
       <defs>
        <path id="DejaVuSans-31" d="M 794 531 
L 1825 531 
L 1825 4091 
L 703 3866 
L 703 4441 
L 1819 4666 
L 2450 4666 
L 2450 531 
L 3481 531 
L 3481 0 
L 794 0 
L 794 531 
z
" transform="scale(0.015625)"/>
       </defs>
       <use xlink:href="#DejaVuSans-31"/>
       <use xlink:href="#DejaVuSans-2e" x="63.623047"/>
       <use xlink:href="#DejaVuSans-30" x="95.410156"/>
      </g>
     </g>
    </g>
    <g id="xtick_3">
     <g id="line2d_3">
      <g>
       <use xlink:href="#m9675f91ff3" x="237.919895" y="241.28" style="stroke: #000000; stroke-width: 0.8"/>
      </g>
     </g>
     <g id="text_3">
      <!-- 1.5 -->
      <g transform="translate(229.968333 255.878438)scale(0.1 -0.1)">
       <use xlink:href="#DejaVuSans-31"/>
       <use xlink:href="#DejaVuSans-2e" x="63.623047"/>
       <use xlink:href="#DejaVuSans-35" x="95.410156"/>
      </g>
     </g>
    </g>
    <g id="xtick_4">
     <g id="line2d_4">
      <g>
       <use xlink:href="#m9675f91ff3" x="308.34788" y="241.28" style="stroke: #000000; stroke-width: 0.8"/>
      </g>
     </g>
     <g id="text_4">
      <!-- 2.0 -->
      <g transform="translate(300.396317 255.878438)scale(0.1 -0.1)">
       <defs>
        <path id="DejaVuSans-32" d="M 1228 531 
L 3431 531 
L 3431 0 
L 469 0 
L 469 531 
Q 828 903 1448 1529 
Q 2069 2156 2228 2338 
Q 2531 2678 2651 2914 
Q 2772 3150 2772 3378 
Q 2772 3750 2511 3984 
Q 2250 4219 1831 4219 
Q 1534 4219 1204 4116 
Q 875 4013 500 3803 
L 500 4441 
Q 881 4594 1212 4672 
Q 1544 4750 1819 4750 
Q 2544 4750 2975 4387 
Q 3406 4025 3406 3419 
Q 3406 3131 3298 2873 
Q 3191 2616 2906 2266 
Q 2828 2175 2409 1742 
Q 1991 1309 1228 531 
z
" transform="scale(0.015625)"/>
       </defs>
       <use xlink:href="#DejaVuSans-32"/>
       <use xlink:href="#DejaVuSans-2e" x="63.623047"/>
       <use xlink:href="#DejaVuSans-30" x="95.410156"/>
      </g>
     </g>
    </g>
    <g id="xtick_5">
     <g id="line2d_5">
      <g>
       <use xlink:href="#m9675f91ff3" x="378.775864" y="241.28" style="stroke: #000000; stroke-width: 0.8"/>
      </g>
     </g>
     <g id="text_5">
      <!-- 2.5 -->
      <g transform="translate(370.824302 255.878438)scale(0.1 -0.1)">
       <use xlink:href="#DejaVuSans-32"/>
       <use xlink:href="#DejaVuSans-2e" x="63.623047"/>
       <use xlink:href="#DejaVuSans-35" x="95.410156"/>
      </g>
     </g>
    </g>
    <g id="text_6">
     <!-- (interlock distance)$^{1/2}$ -->
     <g transform="translate(154.499375 272.0625)scale(0.12 -0.12)">
      <defs>
       <path id="DejaVuSans-28" d="M 1984 4856 
Q 1566 4138 1362 3434 
Q 1159 2731 1159 2009 
Q 1159 1288 1364 580 
Q 1569 -128 1984 -844 
L 1484 -844 
Q 1016 -109 783 600 
Q 550 1309 550 2009 
Q 550 2706 781 3412 
Q 1013 4119 1484 4856 
L 1984 4856 
z
" transform="scale(0.015625)"/>
       <path id="DejaVuSans-69" d="M 603 3500 
L 1178 3500 
L 1178 0 
L 603 0 
L 603 3500 
z
M 603 4863 
L 1178 4863 
L 1178 4134 
L 603 4134 
L 603 4863 
z
" transform="scale(0.015625)"/>
       <path id="DejaVuSans-6e" d="M 3513 2113 
L 3513 0 
L 2938 0 
L 2938 2094 
Q 2938 2591 2744 2837 
Q 2550 3084 2163 3084 
Q 1697 3084 1428 2787 
Q 1159 2491 1159 1978 
L 1159 0 
L 581 0 
L 581 3500 
L 1159 3500 
L 1159 2956 
Q 1366 3272 1645 3428 
Q 1925 3584 2291 3584 
Q 2894 3584 3203 3211 
Q 3513 2838 3513 2113 
z
" transform="scale(0.015625)"/>
       <path id="DejaVuSans-74" d="M 1172 4494 
L 1172 3500 
L 2356 3500 
L 2356 3053 
L 1172 3053 
L 1172 1153 
Q 1172 725 1289 603 
Q 1406 481 1766 481 
L 2356 481 
L 2356 0 
L 1766 0 
Q 1100 0 847 248 
Q 594 497 594 1153 
L 594 3053 
L 172 3053 
L 172 3500 
L 594 3500 
L 594 4494 
L 1172 4494 
z
" transform="scale(0.015625)"/>
       <path id="DejaVuSans-65" d="M 3597 1894 
L 3597 1613 
L 953 1613 
Q 991 1019 1311 708 
Q 1631 397 2203 397 
Q 2534 397 2845 478 
Q 3156 559 3463 722 
L 3463 178 
Q 3153 47 2828 -22 
Q 2503 -91 2169 -91 
Q 1331 -91 842 396 
Q 353 884 353 1716 
Q 353 2575 817 3079 
Q 1281 3584 2069 3584 
Q 2775 3584 3186 3129 
Q 3597 2675 3597 1894 
z
M 3022 2063 
Q 3016 2534 2758 2815 
Q 2500 3097 2075 3097 
Q 1594 3097 1305 2825 
Q 1016 2553 972 2059 
L 3022 2063 
z
" transform="scale(0.015625)"/>
       <path id="DejaVuSans-72" d="M 2631 2963 
Q 2534 3019 2420 3045 
Q 2306 3072 2169 3072 
Q 1681 3072 1420 2755 
Q 1159 2438 1159 1844 
L 1159 0 
L 581 0 
L 581 3500 
L 1159 3500 
L 1159 2956 
Q 1341 3275 1631 3429 
Q 1922 3584 2338 3584 
Q 2397 3584 2469 3576 
Q 2541 3569 2628 3553 
L 2631 2963 
z
" transform="scale(0.015625)"/>
       <path id="DejaVuSans-6c" d="M 603 4863 
L 1178 4863 
L 1178 0 
L 603 0 
L 603 4863 
z
" transform="scale(0.015625)"/>
       <path id="DejaVuSans-6f" d="M 1959 3097 
Q 1497 3097 1228 2736 
Q 959 2375 959 1747 
Q 959 1119 1226 758 
Q 1494 397 1959 397 
Q 2419 397 2687 759 
Q 2956 1122 2956 1747 
Q 2956 2369 2687 2733 
Q 2419 3097 1959 3097 
z
M 1959 3584 
Q 2709 3584 3137 3096 
Q 3566 2609 3566 1747 
Q 3566 888 3137 398 
Q 2709 -91 1959 -91 
Q 1206 -91 779 398 
Q 353 888 353 1747 
Q 353 2609 779 3096 
Q 1206 3584 1959 3584 
z
" transform="scale(0.015625)"/>
       <path id="DejaVuSans-63" d="M 3122 3366 
L 3122 2828 
Q 2878 2963 2633 3030 
Q 2388 3097 2138 3097 
Q 1578 3097 1268 2742 
Q 959 2388 959 1747 
Q 959 1106 1268 751 
Q 1578 397 2138 397 
Q 2388 397 2633 464 
Q 2878 531 3122 666 
L 3122 134 
Q 2881 22 2623 -34 
Q 2366 -91 2075 -91 
Q 1284 -91 818 406 
Q 353 903 353 1747 
Q 353 2603 823 3093 
Q 1294 3584 2113 3584 
Q 2378 3584 2631 3529 
Q 2884 3475 3122 3366 
z
" transform="scale(0.015625)"/>
       <path id="DejaVuSans-6b" d="M 581 4863 
L 1159 4863 
L 1159 1991 
L 2875 3500 
L 3609 3500 
L 1753 1863 
L 3688 0 
L 2938 0 
L 1159 1709 
L 1159 0 
L 581 0 
L 581 4863 
z
" transform="scale(0.015625)"/>
       <path id="DejaVuSans-20" transform="scale(0.015625)"/>
       <path id="DejaVuSans-64" d="M 2906 2969 
L 2906 4863 
L 3481 4863 
L 3481 0 
L 2906 0 
L 2906 525 
Q 2725 213 2448 61 
Q 2172 -91 1784 -91 
Q 1150 -91 751 415 
Q 353 922 353 1747 
Q 353 2572 751 3078 
Q 1150 3584 1784 3584 
Q 2172 3584 2448 3432 
Q 2725 3281 2906 2969 
z
M 947 1747 
Q 947 1113 1208 752 
Q 1469 391 1925 391 
Q 2381 391 2643 752 
Q 2906 1113 2906 1747 
Q 2906 2381 2643 2742 
Q 2381 3103 1925 3103 
Q 1469 3103 1208 2742 
Q 947 2381 947 1747 
z
" transform="scale(0.015625)"/>
       <path id="DejaVuSans-73" d="M 2834 3397 
L 2834 2853 
Q 2591 2978 2328 3040 
Q 2066 3103 1784 3103 
Q 1356 3103 1142 2972 
Q 928 2841 928 2578 
Q 928 2378 1081 2264 
Q 1234 2150 1697 2047 
L 1894 2003 
Q 2506 1872 2764 1633 
Q 3022 1394 3022 966 
Q 3022 478 2636 193 
Q 2250 -91 1575 -91 
Q 1294 -91 989 -36 
Q 684 19 347 128 
L 347 722 
Q 666 556 975 473 
Q 1284 391 1588 391 
Q 1994 391 2212 530 
Q 2431 669 2431 922 
Q 2431 1156 2273 1281 
Q 2116 1406 1581 1522 
L 1381 1569 
Q 847 1681 609 1914 
Q 372 2147 372 2553 
Q 372 3047 722 3315 
Q 1072 3584 1716 3584 
Q 2034 3584 2315 3537 
Q 2597 3491 2834 3397 
z
" transform="scale(0.015625)"/>
       <path id="DejaVuSans-61" d="M 2194 1759 
Q 1497 1759 1228 1600 
Q 959 1441 959 1056 
Q 959 750 1161 570 
Q 1363 391 1709 391 
Q 2188 391 2477 730 
Q 2766 1069 2766 1631 
L 2766 1759 
L 2194 1759 
z
M 3341 1997 
L 3341 0 
L 2766 0 
L 2766 531 
Q 2569 213 2275 61 
Q 1981 -91 1556 -91 
Q 1019 -91 701 211 
Q 384 513 384 1019 
Q 384 1609 779 1909 
Q 1175 2209 1959 2209 
L 2766 2209 
L 2766 2266 
Q 2766 2663 2505 2880 
Q 2244 3097 1772 3097 
Q 1472 3097 1187 3025 
Q 903 2953 641 2809 
L 641 3341 
Q 956 3463 1253 3523 
Q 1550 3584 1831 3584 
Q 2591 3584 2966 3190 
Q 3341 2797 3341 1997 
z
" transform="scale(0.015625)"/>
       <path id="DejaVuSans-29" d="M 513 4856 
L 1013 4856 
Q 1481 4119 1714 3412 
Q 1947 2706 1947 2009 
Q 1947 1309 1714 600 
Q 1481 -109 1013 -844 
L 513 -844 
Q 928 -128 1133 580 
Q 1338 1288 1338 2009 
Q 1338 2731 1133 3434 
Q 928 4138 513 4856 
z
" transform="scale(0.015625)"/>
       <path id="DejaVuSans-2f" d="M 1625 4666 
L 2156 4666 
L 531 -594 
L 0 -594 
L 1625 4666 
z
" transform="scale(0.015625)"/>
      </defs>
      <use xlink:href="#DejaVuSans-28" transform="translate(0 0.765625)"/>
      <use xlink:href="#DejaVuSans-69" transform="translate(39.013672 0.765625)"/>
      <use xlink:href="#DejaVuSans-6e" transform="translate(66.796875 0.765625)"/>
      <use xlink:href="#DejaVuSans-74" transform="translate(130.175781 0.765625)"/>
      <use xlink:href="#DejaVuSans-65" transform="translate(169.384766 0.765625)"/>
      <use xlink:href="#DejaVuSans-72" transform="translate(230.908203 0.765625)"/>
      <use xlink:href="#DejaVuSans-6c" transform="translate(272.021484 0.765625)"/>
      <use xlink:href="#DejaVuSans-6f" transform="translate(299.804688 0.765625)"/>
      <use xlink:href="#DejaVuSans-63" transform="translate(360.986328 0.765625)"/>
      <use xlink:href="#DejaVuSans-6b" transform="translate(415.966797 0.765625)"/>
      <use xlink:href="#DejaVuSans-20" transform="translate(473.876953 0.765625)"/>
      <use xlink:href="#DejaVuSans-64" transform="translate(505.664062 0.765625)"/>
      <use xlink:href="#DejaVuSans-69" transform="translate(569.140625 0.765625)"/>
      <use xlink:href="#DejaVuSans-73" transform="translate(596.923828 0.765625)"/>
      <use xlink:href="#DejaVuSans-74" transform="translate(649.023438 0.765625)"/>
      <use xlink:href="#DejaVuSans-61" transform="translate(688.232422 0.765625)"/>
      <use xlink:href="#DejaVuSans-6e" transform="translate(749.511719 0.765625)"/>
      <use xlink:href="#DejaVuSans-63" transform="translate(812.890625 0.765625)"/>
      <use xlink:href="#DejaVuSans-65" transform="translate(867.871094 0.765625)"/>
      <use xlink:href="#DejaVuSans-29" transform="translate(929.394531 0.765625)"/>
      <use xlink:href="#DejaVuSans-31" transform="translate(969.365234 39.046875)scale(0.7)"/>
      <use xlink:href="#DejaVuSans-2f" transform="translate(1013.901367 39.046875)scale(0.7)"/>
      <use xlink:href="#DejaVuSans-32" transform="translate(1034.947852 39.046875)scale(0.7)"/>
     </g>
    </g>
   </g>
   <g id="matplotlib.axis_2">
    <g id="ytick_1">
     <g id="line2d_6">
      <defs>
       <path id="m4db787dc6b" d="M 0 0 
L -3.5 0 
" style="stroke: #000000; stroke-width: 0.8"/>
      </defs>
      <g>
       <use xlink:href="#m4db787dc6b" x="52.079375" y="229.094376" style="stroke: #000000; stroke-width: 0.8"/>
      </g>
     </g>
     <g id="text_7">
      <!-- 0.20 -->
      <g transform="translate(22.81375 232.893595)scale(0.1 -0.1)">
       <use xlink:href="#DejaVuSans-30"/>
       <use xlink:href="#DejaVuSans-2e" x="63.623047"/>
       <use xlink:href="#DejaVuSans-32" x="95.410156"/>
       <use xlink:href="#DejaVuSans-30" x="159.033203"/>
      </g>
     </g>
    </g>
    <g id="ytick_2">
     <g id="line2d_7">
      <g>
       <use xlink:href="#m4db787dc6b" x="52.079375" y="203.078788" style="stroke: #000000; stroke-width: 0.8"/>
      </g>
     </g>
     <g id="text_8">
      <!-- 0.25 -->
      <g transform="translate(22.81375 206.878007)scale(0.1 -0.1)">
       <use xlink:href="#DejaVuSans-30"/>
       <use xlink:href="#DejaVuSans-2e" x="63.623047"/>
       <use xlink:href="#DejaVuSans-32" x="95.410156"/>
       <use xlink:href="#DejaVuSans-35" x="159.033203"/>
      </g>
     </g>
    </g>
    <g id="ytick_3">
     <g id="line2d_8">
      <g>
       <use xlink:href="#m4db787dc6b" x="52.079375" y="177.063199" style="stroke: #000000; stroke-width: 0.8"/>
      </g>
     </g>
     <g id="text_9">
      <!-- 0.30 -->
      <g transform="translate(22.81375 180.862418)scale(0.1 -0.1)">
       <defs>
        <path id="DejaVuSans-33" d="M 2597 2516 
Q 3050 2419 3304 2112 
Q 3559 1806 3559 1356 
Q 3559 666 3084 287 
Q 2609 -91 1734 -91 
Q 1441 -91 1130 -33 
Q 819 25 488 141 
L 488 750 
Q 750 597 1062 519 
Q 1375 441 1716 441 
Q 2309 441 2620 675 
Q 2931 909 2931 1356 
Q 2931 1769 2642 2001 
Q 2353 2234 1838 2234 
L 1294 2234 
L 1294 2753 
L 1863 2753 
Q 2328 2753 2575 2939 
Q 2822 3125 2822 3475 
Q 2822 3834 2567 4026 
Q 2313 4219 1838 4219 
Q 1578 4219 1281 4162 
Q 984 4106 628 3988 
L 628 4550 
Q 988 4650 1302 4700 
Q 1616 4750 1894 4750 
Q 2613 4750 3031 4423 
Q 3450 4097 3450 3541 
Q 3450 3153 3228 2886 
Q 3006 2619 2597 2516 
z
" transform="scale(0.015625)"/>
       </defs>
       <use xlink:href="#DejaVuSans-30"/>
       <use xlink:href="#DejaVuSans-2e" x="63.623047"/>
       <use xlink:href="#DejaVuSans-33" x="95.410156"/>
       <use xlink:href="#DejaVuSans-30" x="159.033203"/>
      </g>
     </g>
    </g>
    <g id="ytick_4">
     <g id="line2d_9">
      <g>
       <use xlink:href="#m4db787dc6b" x="52.079375" y="151.047611" style="stroke: #000000; stroke-width: 0.8"/>
      </g>
     </g>
     <g id="text_10">
      <!-- 0.35 -->
      <g transform="translate(22.81375 154.846829)scale(0.1 -0.1)">
       <use xlink:href="#DejaVuSans-30"/>
       <use xlink:href="#DejaVuSans-2e" x="63.623047"/>
       <use xlink:href="#DejaVuSans-33" x="95.410156"/>
       <use xlink:href="#DejaVuSans-35" x="159.033203"/>
      </g>
     </g>
    </g>
    <g id="ytick_5">
     <g id="line2d_10">
      <g>
       <use xlink:href="#m4db787dc6b" x="52.079375" y="125.032022" style="stroke: #000000; stroke-width: 0.8"/>
      </g>
     </g>
     <g id="text_11">
      <!-- 0.40 -->
      <g transform="translate(22.81375 128.831241)scale(0.1 -0.1)">
       <defs>
        <path id="DejaVuSans-34" d="M 2419 4116 
L 825 1625 
L 2419 1625 
L 2419 4116 
z
M 2253 4666 
L 3047 4666 
L 3047 1625 
L 3713 1625 
L 3713 1100 
L 3047 1100 
L 3047 0 
L 2419 0 
L 2419 1100 
L 313 1100 
L 313 1709 
L 2253 4666 
z
" transform="scale(0.015625)"/>
       </defs>
       <use xlink:href="#DejaVuSans-30"/>
       <use xlink:href="#DejaVuSans-2e" x="63.623047"/>
       <use xlink:href="#DejaVuSans-34" x="95.410156"/>
       <use xlink:href="#DejaVuSans-30" x="159.033203"/>
      </g>
     </g>
    </g>
    <g id="ytick_6">
     <g id="line2d_11">
      <g>
       <use xlink:href="#m4db787dc6b" x="52.079375" y="99.016433" style="stroke: #000000; stroke-width: 0.8"/>
      </g>
     </g>
     <g id="text_12">
      <!-- 0.45 -->
      <g transform="translate(22.81375 102.815652)scale(0.1 -0.1)">
       <use xlink:href="#DejaVuSans-30"/>
       <use xlink:href="#DejaVuSans-2e" x="63.623047"/>
       <use xlink:href="#DejaVuSans-34" x="95.410156"/>
       <use xlink:href="#DejaVuSans-35" x="159.033203"/>
      </g>
     </g>
    </g>
    <g id="ytick_7">
     <g id="line2d_12">
      <g>
       <use xlink:href="#m4db787dc6b" x="52.079375" y="73.000845" style="stroke: #000000; stroke-width: 0.8"/>
      </g>
     </g>
     <g id="text_13">
      <!-- 0.50 -->
      <g transform="translate(22.81375 76.800064)scale(0.1 -0.1)">
       <use xlink:href="#DejaVuSans-30"/>
       <use xlink:href="#DejaVuSans-2e" x="63.623047"/>
       <use xlink:href="#DejaVuSans-35" x="95.410156"/>
       <use xlink:href="#DejaVuSans-30" x="159.033203"/>
      </g>
     </g>
    </g>
    <g id="ytick_8">
     <g id="line2d_13">
      <g>
       <use xlink:href="#m4db787dc6b" x="52.079375" y="46.985256" style="stroke: #000000; stroke-width: 0.8"/>
      </g>
     </g>
     <g id="text_14">
      <!-- 0.55 -->
      <g transform="translate(22.81375 50.784475)scale(0.1 -0.1)">
       <use xlink:href="#DejaVuSans-30"/>
       <use xlink:href="#DejaVuSans-2e" x="63.623047"/>
       <use xlink:href="#DejaVuSans-35" x="95.410156"/>
       <use xlink:href="#DejaVuSans-35" x="159.033203"/>
      </g>
     </g>
    </g>
    <g id="text_15">
     <!-- Jensen-Shannon distance -->
     <g transform="translate(16.318125 208.307188)rotate(-90)scale(0.12 -0.12)">
      <defs>
       <path id="DejaVuSans-4a" d="M 628 4666 
L 1259 4666 
L 1259 325 
Q 1259 -519 939 -900 
Q 619 -1281 -91 -1281 
L -331 -1281 
L -331 -750 
L -134 -750 
Q 284 -750 456 -515 
Q 628 -281 628 325 
L 628 4666 
z
" transform="scale(0.015625)"/>
       <path id="DejaVuSans-2d" d="M 313 2009 
L 1997 2009 
L 1997 1497 
L 313 1497 
L 313 2009 
z
" transform="scale(0.015625)"/>
       <path id="DejaVuSans-53" d="M 3425 4513 
L 3425 3897 
Q 3066 4069 2747 4153 
Q 2428 4238 2131 4238 
Q 1616 4238 1336 4038 
Q 1056 3838 1056 3469 
Q 1056 3159 1242 3001 
Q 1428 2844 1947 2747 
L 2328 2669 
Q 3034 2534 3370 2195 
Q 3706 1856 3706 1288 
Q 3706 609 3251 259 
Q 2797 -91 1919 -91 
Q 1588 -91 1214 -16 
Q 841 59 441 206 
L 441 856 
Q 825 641 1194 531 
Q 1563 422 1919 422 
Q 2459 422 2753 634 
Q 3047 847 3047 1241 
Q 3047 1584 2836 1778 
Q 2625 1972 2144 2069 
L 1759 2144 
Q 1053 2284 737 2584 
Q 422 2884 422 3419 
Q 422 4038 858 4394 
Q 1294 4750 2059 4750 
Q 2388 4750 2728 4690 
Q 3069 4631 3425 4513 
z
" transform="scale(0.015625)"/>
       <path id="DejaVuSans-68" d="M 3513 2113 
L 3513 0 
L 2938 0 
L 2938 2094 
Q 2938 2591 2744 2837 
Q 2550 3084 2163 3084 
Q 1697 3084 1428 2787 
Q 1159 2491 1159 1978 
L 1159 0 
L 581 0 
L 581 4863 
L 1159 4863 
L 1159 2956 
Q 1366 3272 1645 3428 
Q 1925 3584 2291 3584 
Q 2894 3584 3203 3211 
Q 3513 2838 3513 2113 
z
" transform="scale(0.015625)"/>
      </defs>
      <use xlink:href="#DejaVuSans-4a"/>
      <use xlink:href="#DejaVuSans-65" x="29.492188"/>
      <use xlink:href="#DejaVuSans-6e" x="91.015625"/>
      <use xlink:href="#DejaVuSans-73" x="154.394531"/>
      <use xlink:href="#DejaVuSans-65" x="206.494141"/>
      <use xlink:href="#DejaVuSans-6e" x="268.017578"/>
      <use xlink:href="#DejaVuSans-2d" x="331.396484"/>
      <use xlink:href="#DejaVuSans-53" x="367.480469"/>
      <use xlink:href="#DejaVuSans-68" x="430.957031"/>
      <use xlink:href="#DejaVuSans-61" x="494.335938"/>
      <use xlink:href="#DejaVuSans-6e" x="555.615234"/>
      <use xlink:href="#DejaVuSans-6e" x="618.994141"/>
      <use xlink:href="#DejaVuSans-6f" x="682.373047"/>
      <use xlink:href="#DejaVuSans-6e" x="743.554688"/>
      <use xlink:href="#DejaVuSans-20" x="806.933594"/>
      <use xlink:href="#DejaVuSans-64" x="838.720703"/>
      <use xlink:href="#DejaVuSans-69" x="902.197266"/>
      <use xlink:href="#DejaVuSans-73" x="929.980469"/>
      <use xlink:href="#DejaVuSans-74" x="982.080078"/>
      <use xlink:href="#DejaVuSans-61" x="1021.289062"/>
      <use xlink:href="#DejaVuSans-6e" x="1082.568359"/>
      <use xlink:href="#DejaVuSans-63" x="1145.947266"/>
      <use xlink:href="#DejaVuSans-65" x="1200.927734"/>
     </g>
    </g>
   </g>
   <g id="LineCollection_1">
    <path d="M 87.600389 231.396364 
L 87.600389 158.271956 
" clip-path="url(#pc939ef8c8f)" style="fill: none; stroke: #000000; stroke-width: 0.5"/>
    <path d="M 124.123817 218.188151 
L 124.123817 101.308522 
" clip-path="url(#pc939ef8c8f)" style="fill: none; stroke: #000000; stroke-width: 0.5"/>
    <path d="M 163.439723 219.030965 
L 163.439723 90.312409 
" clip-path="url(#pc939ef8c8f)" style="fill: none; stroke: #000000; stroke-width: 0.5"/>
    <path d="M 192.950747 213.962294 
L 192.950747 90.384481 
" clip-path="url(#pc939ef8c8f)" style="fill: none; stroke: #000000; stroke-width: 0.5"/>
    <path d="M 222.889832 206.089612 
L 222.889832 73.483053 
" clip-path="url(#pc939ef8c8f)" style="fill: none; stroke: #000000; stroke-width: 0.5"/>
    <path d="M 251.309177 198.806945 
L 251.309177 57.135399 
" clip-path="url(#pc939ef8c8f)" style="fill: none; stroke: #000000; stroke-width: 0.5"/>
    <path d="M 280.364018 189.381367 
L 280.364018 44.943378 
" clip-path="url(#pc939ef8c8f)" style="fill: none; stroke: #000000; stroke-width: 0.5"/>
    <path d="M 313.991984 177.450217 
L 313.991984 33.723636 
" clip-path="url(#pc939ef8c8f)" style="fill: none; stroke: #000000; stroke-width: 0.5"/>
    <path d="M 344.655803 164.872936 
L 344.655803 47.069185 
" clip-path="url(#pc939ef8c8f)" style="fill: none; stroke: #000000; stroke-width: 0.5"/>
   </g>
   <g id="line2d_14">
    <defs>
     <path id="mde944d97ad" d="M 2 0 
L -2 -0 
" style="stroke: #000000"/>
    </defs>
    <g clip-path="url(#pc939ef8c8f)">
     <use xlink:href="#mde944d97ad" x="87.600389" y="231.396364" style="stroke: #000000"/>
     <use xlink:href="#mde944d97ad" x="124.123817" y="218.188151" style="stroke: #000000"/>
     <use xlink:href="#mde944d97ad" x="163.439723" y="219.030965" style="stroke: #000000"/>
     <use xlink:href="#mde944d97ad" x="192.950747" y="213.962294" style="stroke: #000000"/>
     <use xlink:href="#mde944d97ad" x="222.889832" y="206.089612" style="stroke: #000000"/>
     <use xlink:href="#mde944d97ad" x="251.309177" y="198.806945" style="stroke: #000000"/>
     <use xlink:href="#mde944d97ad" x="280.364018" y="189.381367" style="stroke: #000000"/>
     <use xlink:href="#mde944d97ad" x="313.991984" y="177.450217" style="stroke: #000000"/>
     <use xlink:href="#mde944d97ad" x="344.655803" y="164.872936" style="stroke: #000000"/>
    </g>
   </g>
   <g id="line2d_15">
    <g clip-path="url(#pc939ef8c8f)">
     <use xlink:href="#mde944d97ad" x="87.600389" y="158.271956" style="stroke: #000000"/>
     <use xlink:href="#mde944d97ad" x="124.123817" y="101.308522" style="stroke: #000000"/>
     <use xlink:href="#mde944d97ad" x="163.439723" y="90.312409" style="stroke: #000000"/>
     <use xlink:href="#mde944d97ad" x="192.950747" y="90.384481" style="stroke: #000000"/>
     <use xlink:href="#mde944d97ad" x="222.889832" y="73.483053" style="stroke: #000000"/>
     <use xlink:href="#mde944d97ad" x="251.309177" y="57.135399" style="stroke: #000000"/>
     <use xlink:href="#mde944d97ad" x="280.364018" y="44.943378" style="stroke: #000000"/>
     <use xlink:href="#mde944d97ad" x="313.991984" y="33.723636" style="stroke: #000000"/>
     <use xlink:href="#mde944d97ad" x="344.655803" y="47.069185" style="stroke: #000000"/>
    </g>
   </g>
   <g id="line2d_16">
    <defs>
     <path id="mf152396c2b" d="M 0 5 
C 1.326016 5 2.597899 4.473168 3.535534 3.535534 
C 4.473168 2.597899 5 1.326016 5 0 
C 5 -1.326016 4.473168 -2.597899 3.535534 -3.535534 
C 2.597899 -4.473168 1.326016 -5 0 -5 
C -1.326016 -5 -2.597899 -4.473168 -3.535534 -3.535534 
C -4.473168 -2.597899 -5 -1.326016 -5 0 
C -5 1.326016 -4.473168 2.597899 -3.535534 3.535534 
C -2.597899 4.473168 -1.326016 5 0 5 
z
" style="stroke: #000000"/>
    </defs>
    <g clip-path="url(#pc939ef8c8f)">
     <use xlink:href="#mf152396c2b" x="87.600389" y="188.461133" style="fill: #add8e6; stroke: #000000"/>
     <use xlink:href="#mf152396c2b" x="124.123817" y="166.111" style="fill: #add8e6; stroke: #000000"/>
     <use xlink:href="#mf152396c2b" x="163.439723" y="159.720659" style="fill: #add8e6; stroke: #000000"/>
     <use xlink:href="#mf152396c2b" x="192.950747" y="154.370907" style="fill: #add8e6; stroke: #000000"/>
     <use xlink:href="#mf152396c2b" x="222.889832" y="141.85567" style="fill: #add8e6; stroke: #000000"/>
     <use xlink:href="#mf152396c2b" x="251.309177" y="128.068367" style="fill: #add8e6; stroke: #000000"/>
     <use xlink:href="#mf152396c2b" x="280.364018" y="115.236681" style="fill: #add8e6; stroke: #000000"/>
     <use xlink:href="#mf152396c2b" x="313.991984" y="102.924889" style="fill: #add8e6; stroke: #000000"/>
     <use xlink:href="#mf152396c2b" x="344.655803" y="106.057489" style="fill: #add8e6; stroke: #000000"/>
    </g>
   </g>
   <g id="patch_3">
    <path d="M 52.079375 241.28 
L 52.079375 23.84 
" style="fill: none; stroke: #000000; stroke-width: 0.8; stroke-linejoin: miter; stroke-linecap: square"/>
   </g>
   <g id="patch_4">
    <path d="M 52.079375 241.28 
L 386.879375 241.28 
" style="fill: none; stroke: #000000; stroke-width: 0.8; stroke-linejoin: miter; stroke-linecap: square"/>
   </g>
   <g id="text_16">
    <!-- $\bf(c)$ interlock distance predicts topic distance -->
    <g transform="translate(52.079375 17.84)scale(0.14 -0.14)">
     <defs>
      <path id="DejaVuSans-Bold-28" d="M 2413 -844 
L 1484 -844 
Q 1006 -72 778 623 
Q 550 1319 550 2003 
Q 550 2688 779 3389 
Q 1009 4091 1484 4856 
L 2413 4856 
Q 2013 4116 1813 3408 
Q 1613 2700 1613 2009 
Q 1613 1319 1811 609 
Q 2009 -100 2413 -844 
z
" transform="scale(0.015625)"/>
      <path id="DejaVuSans-Bold-63" d="M 3366 3391 
L 3366 2478 
Q 3138 2634 2908 2709 
Q 2678 2784 2431 2784 
Q 1963 2784 1702 2511 
Q 1441 2238 1441 1747 
Q 1441 1256 1702 982 
Q 1963 709 2431 709 
Q 2694 709 2930 787 
Q 3166 866 3366 1019 
L 3366 103 
Q 3103 6 2833 -42 
Q 2563 -91 2291 -91 
Q 1344 -91 809 395 
Q 275 881 275 1747 
Q 275 2613 809 3098 
Q 1344 3584 2291 3584 
Q 2566 3584 2833 3536 
Q 3100 3488 3366 3391 
z
" transform="scale(0.015625)"/>
      <path id="DejaVuSans-Bold-29" d="M 513 -844 
Q 913 -100 1113 609 
Q 1313 1319 1313 2009 
Q 1313 2700 1113 3408 
Q 913 4116 513 4856 
L 1441 4856 
Q 1916 4091 2145 3389 
Q 2375 2688 2375 2003 
Q 2375 1319 2147 623 
Q 1919 -72 1441 -844 
L 513 -844 
z
" transform="scale(0.015625)"/>
      <path id="DejaVuSans-70" d="M 1159 525 
L 1159 -1331 
L 581 -1331 
L 581 3500 
L 1159 3500 
L 1159 2969 
Q 1341 3281 1617 3432 
Q 1894 3584 2278 3584 
Q 2916 3584 3314 3078 
Q 3713 2572 3713 1747 
Q 3713 922 3314 415 
Q 2916 -91 2278 -91 
Q 1894 -91 1617 61 
Q 1341 213 1159 525 
z
M 3116 1747 
Q 3116 2381 2855 2742 
Q 2594 3103 2138 3103 
Q 1681 3103 1420 2742 
Q 1159 2381 1159 1747 
Q 1159 1113 1420 752 
Q 1681 391 2138 391 
Q 2594 391 2855 752 
Q 3116 1113 3116 1747 
z
" transform="scale(0.015625)"/>
     </defs>
     <use xlink:href="#DejaVuSans-Bold-28" transform="translate(0 0.015625)"/>
     <use xlink:href="#DejaVuSans-Bold-63" transform="translate(45.703125 0.015625)"/>
     <use xlink:href="#DejaVuSans-Bold-29" transform="translate(104.980469 0.015625)"/>
     <use xlink:href="#DejaVuSans-20" transform="translate(150.683594 0.015625)"/>
     <use xlink:href="#DejaVuSans-69" transform="translate(182.470703 0.015625)"/>
     <use xlink:href="#DejaVuSans-6e" transform="translate(210.253906 0.015625)"/>
     <use xlink:href="#DejaVuSans-74" transform="translate(273.632812 0.015625)"/>
     <use xlink:href="#DejaVuSans-65" transform="translate(312.841797 0.015625)"/>
     <use xlink:href="#DejaVuSans-72" transform="translate(374.365234 0.015625)"/>
     <use xlink:href="#DejaVuSans-6c" transform="translate(415.478516 0.015625)"/>
     <use xlink:href="#DejaVuSans-6f" transform="translate(443.261719 0.015625)"/>
     <use xlink:href="#DejaVuSans-63" transform="translate(504.443359 0.015625)"/>
     <use xlink:href="#DejaVuSans-6b" transform="translate(559.423828 0.015625)"/>
     <use xlink:href="#DejaVuSans-20" transform="translate(617.333984 0.015625)"/>
     <use xlink:href="#DejaVuSans-64" transform="translate(649.121094 0.015625)"/>
     <use xlink:href="#DejaVuSans-69" transform="translate(712.597656 0.015625)"/>
     <use xlink:href="#DejaVuSans-73" transform="translate(740.380859 0.015625)"/>
     <use xlink:href="#DejaVuSans-74" transform="translate(792.480469 0.015625)"/>
     <use xlink:href="#DejaVuSans-61" transform="translate(831.689453 0.015625)"/>
     <use xlink:href="#DejaVuSans-6e" transform="translate(892.96875 0.015625)"/>
     <use xlink:href="#DejaVuSans-63" transform="translate(956.347656 0.015625)"/>
     <use xlink:href="#DejaVuSans-65" transform="translate(1011.328125 0.015625)"/>
     <use xlink:href="#DejaVuSans-20" transform="translate(1072.851562 0.015625)"/>
     <use xlink:href="#DejaVuSans-70" transform="translate(1104.638672 0.015625)"/>
     <use xlink:href="#DejaVuSans-72" transform="translate(1168.115234 0.015625)"/>
     <use xlink:href="#DejaVuSans-65" transform="translate(1209.228516 0.015625)"/>
     <use xlink:href="#DejaVuSans-64" transform="translate(1270.751953 0.015625)"/>
     <use xlink:href="#DejaVuSans-69" transform="translate(1334.228516 0.015625)"/>
     <use xlink:href="#DejaVuSans-63" transform="translate(1362.011719 0.015625)"/>
     <use xlink:href="#DejaVuSans-74" transform="translate(1416.992188 0.015625)"/>
     <use xlink:href="#DejaVuSans-73" transform="translate(1456.201172 0.015625)"/>
     <use xlink:href="#DejaVuSans-20" transform="translate(1508.300781 0.015625)"/>
     <use xlink:href="#DejaVuSans-74" transform="translate(1540.087891 0.015625)"/>
     <use xlink:href="#DejaVuSans-6f" transform="translate(1579.296875 0.015625)"/>
     <use xlink:href="#DejaVuSans-70" transform="translate(1640.478516 0.015625)"/>
     <use xlink:href="#DejaVuSans-69" transform="translate(1703.955078 0.015625)"/>
     <use xlink:href="#DejaVuSans-63" transform="translate(1731.738281 0.015625)"/>
     <use xlink:href="#DejaVuSans-20" transform="translate(1786.71875 0.015625)"/>
     <use xlink:href="#DejaVuSans-64" transform="translate(1818.505859 0.015625)"/>
     <use xlink:href="#DejaVuSans-69" transform="translate(1881.982422 0.015625)"/>
     <use xlink:href="#DejaVuSans-73" transform="translate(1909.765625 0.015625)"/>
     <use xlink:href="#DejaVuSans-74" transform="translate(1961.865234 0.015625)"/>
     <use xlink:href="#DejaVuSans-61" transform="translate(2001.074219 0.015625)"/>
     <use xlink:href="#DejaVuSans-6e" transform="translate(2062.353516 0.015625)"/>
     <use xlink:href="#DejaVuSans-63" transform="translate(2125.732422 0.015625)"/>
     <use xlink:href="#DejaVuSans-65" transform="translate(2180.712891 0.015625)"/>
    </g>
   </g>
   <g id="line2d_17">
    <path d="M 67.297557 201.835351 
L 73.50906 199.360988 
L 79.720562 196.886625 
L 85.932065 194.412262 
L 92.143568 191.937899 
L 98.355071 189.463536 
L 104.566574 186.989173 
L 110.778076 184.514809 
L 116.989579 182.040446 
L 123.201082 179.566083 
L 129.412585 177.09172 
L 135.624087 174.617357 
L 141.83559 172.142994 
L 148.047093 169.668631 
L 154.258596 167.194268 
L 160.470099 164.719905 
L 166.681601 162.245541 
L 172.893104 159.771178 
L 179.104607 157.296815 
L 185.31611 154.822452 
L 191.527612 152.348089 
L 197.739115 149.873726 
L 203.950618 147.399363 
L 210.162121 144.925 
L 216.373624 142.450637 
L 222.585126 139.976273 
L 228.796629 137.50191 
L 235.008132 135.027547 
L 241.219635 132.553184 
L 247.431138 130.078821 
L 253.64264 127.604458 
L 259.854143 125.130095 
L 266.065646 122.655732 
L 272.277149 120.181369 
L 278.488651 117.707005 
L 284.700154 115.232642 
L 290.911657 112.758279 
L 297.12316 110.283916 
L 303.334663 107.809553 
L 309.546165 105.33519 
L 315.757668 102.860827 
L 321.969171 100.386464 
L 328.180674 97.9121 
L 334.392176 95.437737 
L 340.603679 92.963374 
L 346.815182 90.489011 
L 353.026685 88.014648 
L 359.238188 85.540285 
L 365.44969 83.065922 
L 371.661193 80.591559 
" clip-path="url(#pc939ef8c8f)" style="fill: none; stroke: #ff0000; stroke-width: 1.5; stroke-linecap: square"/>
   </g>
  </g>
 </g>
 <defs>
  <clipPath id="pc939ef8c8f">
   <rect x="52.079375" y="23.84" width="334.8" height="217.44"/>
  </clipPath>
 </defs>
</svg>
